<svg xmlns="http://www.w3.org/2000/svg" width="249" height="205" viewBox="0 0 249 205" fill="none">
  <path d="M3.53061 1.57556C3.53061 1.99343 3.34466 2.39417 3.0136 2.68965C2.68254 2.98513 2.2335 3.15116 1.76531 3.15116C1.29711 3.15116 0.848073 2.98513 0.517011 2.68965C0.18595 2.39417 9.8128e-08 1.99343 9.8128e-08 1.57556C9.8128e-08 1.15783 0.185916 0.757204 0.516868 0.461825C0.847819 0.166446 1.2967 0.000512711 1.76473 0.000512711C2.23277 0.000512711 2.68164 0.166446 3.01259 0.461825C3.34355 0.757204 3.53061 1.15783 3.53061 1.57556ZM25.845 1.57556C25.845 1.99329 25.6591 2.39392 25.3282 2.6893C24.9972 2.98468 24.5483 3.15061 24.0803 3.15061C23.6123 3.15061 23.1635 2.98468 22.8325 2.6893C22.5016 2.39392 22.3156 1.99329 22.3156 1.57556C22.3156 1.15783 22.5016 0.757204 22.8325 0.461825C23.1635 0.166446 23.6123 0.000512711 24.0803 0.000512711C24.5483 0.000512711 24.9972 0.166446 25.3282 0.461825C25.6591 0.757204 25.845 1.15783 25.845 1.57556ZM48.1607 1.57556C48.1607 1.99343 47.9747 2.39417 47.6436 2.68965C47.3126 2.98513 46.8635 3.15116 46.3954 3.15116C45.9272 3.15116 45.4781 2.98513 45.1471 2.68965C44.816 2.39417 44.63 1.99343 44.63 1.57556C44.63 1.15769 44.816 0.75695 45.1471 0.461472C45.4781 0.165995 45.9272 0 46.3954 0C46.8635 0 47.3126 0.165995 47.6436 0.461472C47.9747 0.75695 48.1607 1.15769 48.1607 1.57556ZM70.4763 1.57556C70.4763 1.99343 70.2903 2.39417 69.9592 2.68965C69.6281 2.98513 69.1792 3.15116 68.711 3.15116C68.2428 3.15116 67.7938 2.98513 67.4627 2.68965C67.1316 2.39417 66.9457 1.99343 66.9457 1.57556C66.9457 1.15783 67.1316 0.757204 67.4626 0.461825C67.7935 0.166446 68.2424 0.000512711 68.7104 0.000512711C69.1784 0.000512711 69.6273 0.166446 69.9582 0.461825C70.2892 0.757204 70.4763 1.15783 70.4763 1.57556ZM92.7919 1.57556C92.7919 1.99343 92.6059 2.39417 92.2748 2.68965C91.9438 2.98513 91.4947 3.15116 91.0266 3.15116C90.5584 3.15116 90.1094 2.98513 89.7783 2.68965C89.4473 2.39417 89.2612 1.99343 89.2612 1.57556C89.2612 1.15783 89.4472 0.757204 89.7781 0.461825C90.1091 0.166446 90.5579 0.000512711 91.026 0.000512711C91.494 0.000512711 91.9429 0.166446 92.2738 0.461825C92.6048 0.757204 92.7907 1.15783 92.7907 1.57556H92.7919ZM115.106 1.57556C115.106 1.99329 114.92 2.39392 114.589 2.6893C114.259 2.98468 113.81 3.15061 113.342 3.15061C112.874 3.15061 112.425 2.98468 112.094 2.6893C111.763 2.39392 111.577 1.99329 111.577 1.57556C111.577 1.15783 111.763 0.757204 112.094 0.461825C112.425 0.166446 112.874 0.000512711 113.342 0.000512711C113.81 0.000512711 114.259 0.166446 114.589 0.461825C114.92 0.757204 115.106 1.15783 115.106 1.57556ZM137.422 1.57556C137.422 1.99329 137.236 2.39392 136.905 2.6893C136.574 2.98468 136.125 3.15061 135.657 3.15061C135.189 3.15061 134.74 2.98468 134.409 2.6893C134.078 2.39392 133.893 1.99329 133.893 1.57556C133.893 1.15783 134.078 0.757204 134.409 0.461825C134.74 0.166446 135.189 0.000512711 135.657 0.000512711C136.125 0.000512711 136.574 0.166446 136.905 0.461825C137.236 0.757204 137.422 1.15783 137.422 1.57556ZM159.739 1.57556C159.739 1.99343 159.553 2.39417 159.222 2.68965C158.891 2.98513 158.442 3.15116 157.973 3.15116C157.505 3.15116 157.056 2.98513 156.725 2.68965C156.394 2.39417 156.208 1.99343 156.208 1.57556C156.208 1.15769 156.394 0.75695 156.725 0.461472C157.056 0.165995 157.505 0 157.973 0C158.442 0 158.891 0.165995 159.222 0.461472C159.553 0.75695 159.739 1.15769 159.739 1.57556ZM182.054 1.57556C182.054 1.99343 181.868 2.39417 181.537 2.68965C181.206 2.98513 180.757 3.15116 180.289 3.15116C179.821 3.15116 179.372 2.98513 179.041 2.68965C178.71 2.39417 178.524 1.99343 178.524 1.57556C178.524 1.15783 178.71 0.757204 179.041 0.461825C179.372 0.166446 179.82 0.000512711 180.288 0.000512711C180.756 0.000512711 181.205 0.166446 181.536 0.461825C181.867 0.757204 182.054 1.15783 182.054 1.57556ZM204.37 1.57556C204.37 1.99357 204.184 2.39446 203.853 2.69004C203.522 2.98561 203.072 3.15167 202.604 3.15167C202.136 3.15167 201.687 2.98561 201.355 2.69004C201.024 2.39446 200.838 1.99357 200.838 1.57556C200.838 1.15769 201.024 0.75695 201.355 0.461472C201.686 0.165995 202.135 0 202.604 0C203.072 0 203.521 0.165995 203.852 0.461472C204.183 0.75695 204.37 1.15769 204.37 1.57556ZM226.684 1.57556C226.684 1.99329 226.498 2.39392 226.168 2.6893C225.837 2.98468 225.388 3.15061 224.92 3.15061C224.452 3.15061 224.003 2.98468 223.672 2.6893C223.341 2.39392 223.155 1.99329 223.155 1.57556C223.155 1.15783 223.341 0.757204 223.672 0.461825C224.003 0.166446 224.452 0.000512711 224.92 0.000512711C225.388 0.000512711 225.837 0.166446 226.168 0.461825C226.498 0.757204 226.684 1.15783 226.684 1.57556ZM249 1.57556C249 1.99343 248.814 2.39417 248.483 2.68965C248.152 2.98513 247.703 3.15116 247.235 3.15116C246.767 3.15116 246.317 2.98513 245.986 2.68965C245.655 2.39417 245.469 1.99343 245.469 1.57556C245.469 1.15769 245.655 0.75695 245.986 0.461472C246.317 0.165995 246.767 0 247.235 0C247.703 0 248.152 0.165995 248.483 0.461472C248.814 0.75695 249 1.15769 249 1.57556ZM3.53061 21.7603C3.53053 21.9672 3.48483 22.1721 3.39604 22.3633C3.30726 22.5544 3.17715 22.728 3.01317 22.8743C2.84919 23.0206 2.6545 23.1366 2.44029 23.2157C2.22608 23.2948 1.99656 23.3355 1.76473 23.3354C1.53291 23.3353 1.30332 23.2945 1.08917 23.2153C0.875021 23.136 0.680523 23.0199 0.516652 22.8736C0.352782 22.7272 0.22278 22.5535 0.134136 22.3623C0.0454915 22.1711 -7.71813e-05 21.9662 9.8128e-08 21.7593C0.00015611 21.3416 0.186237 20.941 0.517298 20.6457C0.84836 20.3505 1.29727 20.1846 1.76531 20.1848C2.23334 20.1849 2.68211 20.351 3.01295 20.6465C3.34379 20.9419 3.53077 21.3426 3.53061 21.7603ZM25.845 21.7603C25.8449 22.1781 25.6589 22.5786 25.3278 22.8739C24.9967 23.1692 24.5478 23.335 24.0797 23.3349C23.6117 23.3347 23.1629 23.1687 22.8321 22.8732C22.5012 22.5777 22.3154 22.177 22.3156 21.7593C22.3157 21.3416 22.5018 20.941 22.8329 20.6457C23.1639 20.3505 23.6129 20.1846 24.0809 20.1848C24.549 20.1849 24.9977 20.351 25.3286 20.6465C25.6594 20.9419 25.8452 21.3426 25.845 21.7603ZM48.1607 21.7603C48.1606 21.9672 48.1149 22.1721 48.0261 22.3633C47.9373 22.5544 47.8072 22.728 47.6432 22.8743C47.4792 23.0206 47.2845 23.1366 47.0703 23.2157C46.8561 23.2948 46.6266 23.3355 46.3948 23.3354C46.163 23.3353 45.9334 23.2945 45.7192 23.2153C45.5051 23.136 45.3106 23.0199 45.1467 22.8736C44.9828 22.7272 44.8528 22.5535 44.7642 22.3623C44.6755 22.1711 44.63 21.9662 44.63 21.7593C44.6302 21.3414 44.8163 20.9407 45.1475 20.6454C45.4787 20.35 45.9277 20.1841 46.3959 20.1843C46.8641 20.1844 47.3131 20.3505 47.644 20.6461C47.975 20.9417 48.1608 21.3425 48.1607 21.7603ZM70.4763 21.7603C70.4762 21.9672 70.4304 22.1721 70.3417 22.3633C70.2529 22.5544 70.1228 22.728 69.9589 22.8743C69.7949 23.0206 69.6002 23.1366 69.386 23.2157C69.1718 23.2948 68.9422 23.3355 68.7104 23.3354C68.4786 23.3353 68.249 23.2945 68.0349 23.2153C67.8207 23.136 67.6261 23.0199 67.4623 22.8736C67.2984 22.7272 67.1685 22.5535 67.0798 22.3623C66.9912 22.1711 66.9456 21.9662 66.9457 21.7593C66.9458 21.3416 67.1318 20.941 67.4629 20.6457C67.794 20.3505 68.243 20.1846 68.711 20.1848C69.179 20.1849 69.6278 20.351 69.9586 20.6465C70.2895 20.9419 70.4765 21.3426 70.4763 21.7603ZM92.7919 21.7603C92.7919 21.9672 92.7461 22.1721 92.6573 22.3633C92.5685 22.5544 92.4384 22.728 92.2744 22.8743C92.1104 23.0206 91.9158 23.1366 91.7016 23.2157C91.4874 23.2948 91.2578 23.3355 91.026 23.3354C90.7942 23.3353 90.5646 23.2945 90.3505 23.2153C90.1363 23.136 89.9418 23.0199 89.7779 22.8736C89.614 22.7272 89.484 22.5535 89.3954 22.3623C89.3067 22.1711 89.2612 21.9662 89.2612 21.7593C89.2614 21.3416 89.4475 20.941 89.7785 20.6457C90.1096 20.3505 90.5585 20.1846 91.0266 20.1848C91.4946 20.1849 91.9434 20.351 92.2743 20.6465C92.6051 20.9419 92.7909 21.3426 92.7907 21.7603H92.7919ZM115.106 21.7603C115.106 22.1781 114.92 22.5787 114.589 22.8741C114.259 23.1695 113.81 23.3354 113.342 23.3354C112.874 23.3354 112.425 23.1695 112.094 22.8741C111.763 22.5787 111.577 22.1781 111.577 21.7603C111.577 21.3426 111.763 20.942 112.094 20.6466C112.425 20.3513 112.874 20.1853 113.342 20.1853C113.81 20.1853 114.259 20.3513 114.589 20.6466C114.92 20.942 115.106 21.3426 115.106 21.7603ZM137.422 21.7603C137.422 22.1781 137.236 22.5787 136.905 22.8741C136.574 23.1695 136.125 23.3354 135.657 23.3354C135.189 23.3354 134.74 23.1695 134.409 22.8741C134.078 22.5787 133.893 22.1781 133.893 21.7603C133.893 21.3426 134.078 20.942 134.409 20.6466C134.74 20.3513 135.189 20.1853 135.657 20.1853C136.125 20.1853 136.574 20.3513 136.905 20.6466C137.236 20.942 137.422 21.3426 137.422 21.7603ZM159.739 21.7603C159.739 22.1782 159.552 22.5789 159.221 22.8743C158.89 23.1697 158.441 23.3355 157.973 23.3354C157.505 23.3352 157.056 23.1691 156.725 22.8736C156.394 22.578 156.208 22.1772 156.208 21.7593C156.208 21.3414 156.394 20.9407 156.726 20.6454C157.057 20.35 157.506 20.1841 157.974 20.1843C158.442 20.1844 158.891 20.3505 159.222 20.6461C159.553 20.9417 159.739 21.3425 159.739 21.7603ZM182.054 21.7603C182.054 22.1782 181.868 22.5789 181.537 22.8743C181.206 23.1697 180.757 23.3355 180.288 23.3354C179.82 23.3352 179.371 23.1691 179.04 22.8736C178.709 22.578 178.524 22.1772 178.524 21.7593C178.524 21.3416 178.71 20.941 179.041 20.6457C179.372 20.3505 179.821 20.1846 180.289 20.1848C180.757 20.1849 181.206 20.351 181.537 20.6465C181.868 20.9419 182.054 21.3426 182.054 21.7603ZM204.37 21.7603C204.37 21.9673 204.324 22.1723 204.235 22.3634C204.147 22.5546 204.016 22.7284 203.852 22.8747C203.688 23.021 203.494 23.137 203.279 23.2161C203.065 23.2953 202.835 23.336 202.604 23.3359C202.372 23.3359 202.142 23.295 201.928 23.2158C201.714 23.1365 201.519 23.0203 201.355 22.8739C201.191 22.7275 201.061 22.5537 200.972 22.3625C200.884 22.1712 200.838 21.9663 200.838 21.7593C200.838 21.3414 201.024 20.9407 201.356 20.6454C201.687 20.35 202.136 20.1841 202.604 20.1843C203.072 20.1844 203.521 20.3505 203.852 20.6461C204.183 20.9417 204.37 21.3425 204.37 21.7603ZM226.684 21.7603C226.684 21.9672 226.639 22.172 226.55 22.3631C226.461 22.5541 226.331 22.7277 226.167 22.8739C226.003 23.0201 225.809 23.1361 225.594 23.2152C225.38 23.2943 225.151 23.3349 224.919 23.3349C224.687 23.3348 224.458 23.294 224.244 23.2148C224.03 23.1356 223.835 23.0195 223.671 22.8732C223.508 22.7269 223.378 22.5532 223.289 22.3621C223.2 22.171 223.155 21.9662 223.155 21.7593C223.155 21.3416 223.341 20.941 223.672 20.6457C224.003 20.3505 224.452 20.1846 224.92 20.1848C225.388 20.1849 225.837 20.351 226.168 20.6465C226.499 20.9419 226.685 21.3426 226.684 21.7603ZM249 21.7603C249 22.1782 248.814 22.5789 248.483 22.8743C248.151 23.1697 247.702 23.3355 247.234 23.3354C246.766 23.3352 246.317 23.1691 245.986 22.8736C245.655 22.578 245.469 22.1772 245.469 21.7593C245.47 21.3414 245.656 20.9407 245.987 20.6454C246.318 20.35 246.767 20.1841 247.235 20.1843C247.703 20.1844 248.152 20.3505 248.483 20.6461C248.814 20.9417 249 21.3425 249 21.7603ZM3.53061 41.9462C3.53053 42.1531 3.48483 42.358 3.39604 42.5491C3.30726 42.7402 3.17715 42.9139 3.01317 43.0601C2.84919 43.2064 2.6545 43.3224 2.44029 43.4015C2.22608 43.4806 1.99656 43.5213 1.76473 43.5212C1.53291 43.5212 1.30332 43.4803 1.08917 43.4011C0.875021 43.3218 0.680523 43.2057 0.516652 43.0594C0.352782 42.913 0.22278 42.7393 0.134136 42.5481C0.0454915 42.3569 -7.71813e-05 42.1521 9.8128e-08 41.9451C9.81281e-08 41.5274 0.185916 41.1268 0.516868 40.8314C0.847819 40.536 1.2967 40.3701 1.76473 40.3701C2.23277 40.3701 2.68164 40.536 3.01259 40.8314C3.34355 41.1268 3.52946 41.5274 3.52946 41.9451L3.53061 41.9462ZM25.845 41.9462C25.8449 42.3639 25.6589 42.7645 25.3278 43.0597C24.9967 43.355 24.5478 43.5208 24.0797 43.5207C23.6117 43.5206 23.1629 43.3545 22.8321 43.059C22.5012 42.7635 22.3154 42.3629 22.3156 41.9451C22.3156 41.5274 22.5016 41.1268 22.8325 40.8314C23.1635 40.536 23.6123 40.3701 24.0803 40.3701C24.5483 40.3701 24.9972 40.536 25.3282 40.8314C25.6591 41.1268 25.845 41.5284 25.845 41.9462ZM48.1607 41.9462C48.1606 42.1531 48.1149 42.358 48.0261 42.5491C47.9373 42.7402 47.8072 42.9139 47.6432 43.0601C47.4792 43.2064 47.2845 43.3224 47.0703 43.4015C46.8561 43.4806 46.6266 43.5213 46.3948 43.5212C46.163 43.5212 45.9334 43.4803 45.7192 43.4011C45.5051 43.3218 45.3106 43.2057 45.1467 43.0594C44.9828 42.913 44.8528 42.7393 44.7642 42.5481C44.6755 42.3569 44.63 42.1521 44.63 41.9451C44.63 41.5273 44.816 41.1265 45.1471 40.831C45.4781 40.5355 45.9272 40.3696 46.3954 40.3696C46.8635 40.3696 47.3126 40.5355 47.6436 40.831C47.9747 41.1265 48.1607 41.5283 48.1607 41.9462ZM70.4763 41.9462C70.4762 42.1531 70.4304 42.358 70.3417 42.5491C70.2529 42.7402 70.1228 42.9139 69.9589 43.0601C69.7949 43.2064 69.6002 43.3224 69.386 43.4015C69.1718 43.4806 68.9422 43.5213 68.7104 43.5212C68.4786 43.5212 68.249 43.4803 68.0349 43.4011C67.8207 43.3218 67.6261 43.2057 67.4623 43.0594C67.2984 42.913 67.1685 42.7393 67.0798 42.5481C66.9912 42.3569 66.9456 42.1521 66.9457 41.9451C66.9457 41.5274 67.1316 41.1268 67.4626 40.8314C67.7935 40.536 68.2424 40.3701 68.7104 40.3701C69.1784 40.3701 69.6273 40.536 69.9582 40.8314C70.2892 41.1268 70.4751 41.5274 70.4751 41.9451L70.4763 41.9462ZM92.7919 41.9462C92.7919 42.1531 92.7461 42.358 92.6573 42.5491C92.5685 42.7402 92.4384 42.9139 92.2744 43.0601C92.1104 43.2064 91.9158 43.3224 91.7016 43.4015C91.4874 43.4806 91.2578 43.5213 91.026 43.5212C90.7942 43.5212 90.5646 43.4803 90.3505 43.4011C90.1363 43.3218 89.9418 43.2057 89.7779 43.0594C89.614 42.913 89.484 42.7393 89.3954 42.5481C89.3067 42.3569 89.2612 42.1521 89.2612 41.9451C89.2612 41.5274 89.4472 41.1268 89.7781 40.8314C90.1091 40.536 90.5579 40.3701 91.026 40.3701C91.494 40.3701 91.9429 40.536 92.2738 40.8314C92.6048 41.1268 92.7907 41.5274 92.7907 41.9451L92.7919 41.9462ZM115.106 41.9462C115.106 42.3639 114.92 42.7645 114.589 43.0599C114.259 43.3553 113.81 43.5212 113.342 43.5212C112.874 43.5212 112.425 43.3553 112.094 43.0599C111.763 42.7645 111.577 42.3639 111.577 41.9462C111.577 41.5284 111.763 41.1278 112.094 40.8325C112.425 40.5371 112.874 40.3711 113.342 40.3711C113.81 40.3711 114.259 40.5371 114.589 40.8325C114.92 41.1278 115.106 41.5284 115.106 41.9462ZM137.422 41.9462C137.422 42.3639 137.236 42.7645 136.905 43.0599C136.574 43.3553 136.125 43.5212 135.657 43.5212C135.189 43.5212 134.74 43.3553 134.409 43.0599C134.078 42.7645 133.893 42.3639 133.893 41.9462C133.893 41.5284 134.078 41.1278 134.409 40.8325C134.74 40.5371 135.189 40.3711 135.657 40.3711C136.125 40.3711 136.574 40.5371 136.905 40.8325C137.236 41.1278 137.422 41.5284 137.422 41.9462ZM159.739 41.9462C159.739 42.364 159.552 42.7648 159.221 43.0601C158.89 43.3555 158.441 43.5214 157.973 43.5212C157.505 43.5211 157.056 43.355 156.725 43.0594C156.394 42.7638 156.208 42.363 156.208 41.9451C156.208 41.5273 156.394 41.1265 156.725 40.831C157.056 40.5355 157.505 40.3696 157.973 40.3696C158.442 40.3696 158.891 40.5355 159.222 40.831C159.553 41.1265 159.739 41.5283 159.739 41.9462ZM182.054 41.9462C182.054 42.364 181.868 42.7648 181.537 43.0601C181.206 43.3555 180.757 43.5214 180.288 43.5212C179.82 43.5211 179.371 43.355 179.04 43.0594C178.709 42.7638 178.524 42.363 178.524 41.9451C178.524 41.5274 178.71 41.1268 179.041 40.8314C179.372 40.536 179.82 40.3701 180.288 40.3701C180.756 40.3701 181.205 40.536 181.536 40.8314C181.867 41.1268 182.053 41.5274 182.053 41.9451L182.054 41.9462ZM204.37 41.9462C204.37 42.3642 204.184 42.765 203.852 43.0605C203.521 43.356 203.072 43.5219 202.604 43.5218C202.135 43.5216 201.686 43.3554 201.355 43.0597C201.024 42.7641 200.838 42.3632 200.838 41.9451C200.838 41.5273 201.024 41.1265 201.355 40.831C201.686 40.5355 202.135 40.3696 202.604 40.3696C203.072 40.3696 203.521 40.5355 203.852 40.831C204.183 41.1265 204.369 41.5273 204.369 41.9451L204.37 41.9462ZM226.684 41.9462C226.684 42.153 226.639 42.3578 226.55 42.5489C226.461 42.74 226.331 42.9135 226.167 43.0597C226.003 43.206 225.809 43.3219 225.594 43.401C225.38 43.4801 225.151 43.5208 224.919 43.5207C224.687 43.5206 224.458 43.4798 224.244 43.4006C224.03 43.3214 223.835 43.2053 223.671 43.059C223.508 42.9127 223.378 42.7391 223.289 42.5479C223.2 42.3568 223.155 42.152 223.155 41.9451C223.155 41.5274 223.341 41.1268 223.672 40.8314C224.003 40.536 224.452 40.3701 224.92 40.3701C225.388 40.3701 225.837 40.536 226.168 40.8314C226.498 41.1268 226.684 41.5284 226.684 41.9462ZM249 41.9462C249 42.364 248.814 42.7648 248.483 43.0601C248.151 43.3555 247.702 43.5214 247.234 43.5212C246.766 43.5211 246.317 43.355 245.986 43.0594C245.655 42.7638 245.469 42.363 245.469 41.9451C245.469 41.5273 245.655 41.1265 245.986 40.831C246.317 40.5355 246.767 40.3696 247.235 40.3696C247.703 40.3696 248.152 40.5355 248.483 40.831C248.814 41.1265 249 41.5283 249 41.9462ZM3.53061 62.1299C3.53061 62.5478 3.34466 62.9485 3.0136 63.244C2.68254 63.5395 2.2335 63.7055 1.76531 63.7055C1.29711 63.7055 0.848073 63.5395 0.517011 63.244C0.18595 62.9485 9.8128e-08 62.5478 9.8128e-08 62.1299C9.8128e-08 61.7122 0.185916 61.3116 0.516868 61.0162C0.847819 60.7208 1.2967 60.5549 1.76473 60.5549C2.23277 60.5549 2.68164 60.7208 3.01259 61.0162C3.34355 61.3116 3.53061 61.7122 3.53061 62.1299ZM25.845 62.1299C25.845 62.5476 25.6591 62.9483 25.3282 63.2437C24.9972 63.539 24.5483 63.705 24.0803 63.705C23.6123 63.705 23.1635 63.539 22.8325 63.2437C22.5016 62.9483 22.3156 62.5476 22.3156 62.1299C22.3156 61.7122 22.5016 61.3116 22.8325 61.0162C23.1635 60.7208 23.6123 60.5549 24.0803 60.5549C24.5483 60.5549 24.9972 60.7208 25.3282 61.0162C25.6591 61.3116 25.845 61.7122 25.845 62.1299ZM48.1607 62.1299C48.1607 62.5478 47.9747 62.9485 47.6436 63.244C47.3126 63.5395 46.8635 63.7055 46.3954 63.7055C45.9272 63.7055 45.4781 63.5395 45.1471 63.244C44.816 62.9485 44.63 62.5478 44.63 62.1299C44.63 61.7121 44.816 61.3113 45.1471 61.0158C45.4781 60.7204 45.9272 60.5544 46.3954 60.5544C46.8635 60.5544 47.3126 60.7204 47.6436 61.0158C47.9747 61.3113 48.1607 61.7121 48.1607 62.1299ZM70.4763 62.1299C70.4763 62.5478 70.2903 62.9485 69.9592 63.244C69.6281 63.5395 69.1792 63.7055 68.711 63.7055C68.2428 63.7055 67.7938 63.5395 67.4627 63.244C67.1316 62.9485 66.9457 62.5478 66.9457 62.1299C66.9457 61.7122 67.1316 61.3116 67.4626 61.0162C67.7935 60.7208 68.2424 60.5549 68.7104 60.5549C69.1784 60.5549 69.6273 60.7208 69.9582 61.0162C70.2892 61.3116 70.4763 61.7122 70.4763 62.1299ZM92.7919 62.1299C92.7919 62.5478 92.6059 62.9485 92.2748 63.244C91.9438 63.5395 91.4947 63.7055 91.0266 63.7055C90.5584 63.7055 90.1094 63.5395 89.7783 63.244C89.4473 62.9485 89.2612 62.5478 89.2612 62.1299C89.2612 61.7122 89.4472 61.3116 89.7781 61.0162C90.1091 60.7208 90.5579 60.5549 91.026 60.5549C91.494 60.5549 91.9429 60.7208 92.2738 61.0162C92.6048 61.3116 92.7907 61.7122 92.7907 62.1299H92.7919ZM115.106 62.1299C115.106 62.5476 114.92 62.9483 114.589 63.2437C114.259 63.539 113.81 63.705 113.342 63.705C112.874 63.705 112.425 63.539 112.094 63.2437C111.763 62.9483 111.577 62.5476 111.577 62.1299C111.577 61.7122 111.763 61.3116 112.094 61.0162C112.425 60.7208 112.874 60.5549 113.342 60.5549C113.81 60.5549 114.259 60.7208 114.589 61.0162C114.92 61.3116 115.106 61.7122 115.106 62.1299ZM137.422 62.1299C137.422 62.5476 137.236 62.9483 136.905 63.2437C136.574 63.539 136.125 63.705 135.657 63.705C135.189 63.705 134.74 63.539 134.409 63.2437C134.078 62.9483 133.893 62.5476 133.893 62.1299C133.893 61.7122 134.078 61.3116 134.409 61.0162C134.74 60.7208 135.189 60.5549 135.657 60.5549C136.125 60.5549 136.574 60.7208 136.905 61.0162C137.236 61.3116 137.422 61.7122 137.422 62.1299ZM159.739 62.1299C159.739 62.5478 159.553 62.9485 159.222 63.244C158.891 63.5395 158.442 63.7055 157.973 63.7055C157.505 63.7055 157.056 63.5395 156.725 63.244C156.394 62.9485 156.208 62.5478 156.208 62.1299C156.208 61.7121 156.394 61.3113 156.725 61.0158C157.056 60.7204 157.505 60.5544 157.973 60.5544C158.442 60.5544 158.891 60.7204 159.222 61.0158C159.553 61.3113 159.739 61.7121 159.739 62.1299ZM182.054 62.1299C182.054 62.5478 181.868 62.9485 181.537 63.244C181.206 63.5395 180.757 63.7055 180.289 63.7055C179.821 63.7055 179.372 63.5395 179.041 63.244C178.71 62.9485 178.524 62.5478 178.524 62.1299C178.524 61.7122 178.71 61.3116 179.041 61.0162C179.372 60.7208 179.82 60.5549 180.288 60.5549C180.756 60.5549 181.205 60.7208 181.536 61.0162C181.867 61.3116 182.054 61.7122 182.054 62.1299ZM204.37 62.1299C204.37 62.5479 204.184 62.9488 203.853 63.2444C203.522 63.54 203.072 63.706 202.604 63.706C202.136 63.706 201.687 63.54 201.355 63.2444C201.024 62.9488 200.838 62.5479 200.838 62.1299C200.838 61.7121 201.024 61.3113 201.355 61.0158C201.686 60.7204 202.135 60.5544 202.604 60.5544C203.072 60.5544 203.521 60.7204 203.852 61.0158C204.183 61.3113 204.37 61.7121 204.37 62.1299ZM226.684 62.1299C226.684 62.5476 226.498 62.9483 226.168 63.2437C225.837 63.539 225.388 63.705 224.92 63.705C224.452 63.705 224.003 63.539 223.672 63.2437C223.341 62.9483 223.155 62.5476 223.155 62.1299C223.155 61.7122 223.341 61.3116 223.672 61.0162C224.003 60.7208 224.452 60.5549 224.92 60.5549C225.388 60.5549 225.837 60.7208 226.168 61.0162C226.498 61.3116 226.684 61.7122 226.684 62.1299ZM249 62.1299C249 62.5478 248.814 62.9485 248.483 63.244C248.152 63.5395 247.703 63.7055 247.235 63.7055C246.767 63.7055 246.317 63.5395 245.986 63.244C245.655 62.9485 245.469 62.5478 245.469 62.1299C245.469 61.7121 245.655 61.3113 245.986 61.0158C246.317 60.7204 246.767 60.5544 247.235 60.5544C247.703 60.5544 248.152 60.7204 248.483 61.0158C248.814 61.3113 249 61.7121 249 62.1299ZM3.53061 82.3147C3.53061 82.7324 3.3447 83.1331 3.01374 83.4284C2.68279 83.7238 2.23392 83.8897 1.76588 83.8897C1.29784 83.8897 0.848968 83.7238 0.518016 83.4284C0.187065 83.1331 0.00114901 82.7324 0.00114901 82.3147C0.00114901 81.897 0.187065 81.4964 0.518016 81.201C0.848968 80.9056 1.29784 80.7396 1.76588 80.7396C2.23392 80.7396 2.68279 80.9056 3.01374 81.201C3.3447 81.4964 3.53061 81.897 3.53061 82.3147ZM25.845 82.3147C25.845 82.7324 25.6591 83.1331 25.3282 83.4284C24.9972 83.7238 24.5483 83.8897 24.0803 83.8897C23.6123 83.8897 23.1635 83.7238 22.8325 83.4284C22.5016 83.1331 22.3156 82.7324 22.3156 82.3147C22.3156 81.897 22.5016 81.4964 22.8325 81.201C23.1635 80.9056 23.6123 80.7396 24.0803 80.7396C24.5483 80.7396 24.9972 80.9056 25.3282 81.201C25.6591 81.4964 25.845 81.897 25.845 82.3147ZM48.1607 82.3147C48.1607 82.7324 47.9747 83.1331 47.6438 83.4284C47.3128 83.7238 46.864 83.8897 46.3959 83.8897C45.9279 83.8897 45.479 83.7238 45.1481 83.4284C44.8171 83.1331 44.6312 82.7324 44.6312 82.3147C44.6312 81.897 44.8171 81.4964 45.1481 81.201C45.479 80.9056 45.9279 80.7396 46.3959 80.7396C46.864 80.7396 47.3128 80.9056 47.6438 81.201C47.9747 81.4964 48.1607 81.897 48.1607 82.3147ZM70.4763 82.3147C70.4763 82.7324 70.2904 83.1331 69.9594 83.4284C69.6285 83.7238 69.1796 83.8897 68.7116 83.8897C68.2435 83.8897 67.7947 83.7238 67.4637 83.4284C67.1327 83.1331 66.9468 82.7324 66.9468 82.3147C66.9468 81.897 67.1327 81.4964 67.4637 81.201C67.7947 80.9056 68.2435 80.7396 68.7116 80.7396C69.1796 80.7396 69.6285 80.9056 69.9594 81.201C70.2904 81.4964 70.4763 81.897 70.4763 82.3147ZM92.7919 82.3147C92.7919 82.7324 92.6059 83.1331 92.275 83.4284C91.944 83.7238 91.4952 83.8897 91.0272 83.8897C90.5592 83.8897 90.1103 83.7238 89.7793 83.4284C89.4484 83.1331 89.2625 82.7324 89.2625 82.3147C89.2625 81.897 89.4484 81.4964 89.7793 81.201C90.1103 80.9056 90.5592 80.7396 91.0272 80.7396C91.4952 80.7396 91.944 80.9056 92.275 81.201C92.6059 81.4964 92.7919 81.897 92.7919 82.3147ZM115.106 82.3147C115.115 82.5262 115.076 82.7372 114.991 82.9349C114.907 83.1327 114.778 83.3131 114.614 83.4656C114.449 83.618 114.252 83.7393 114.034 83.8221C113.815 83.905 113.581 83.9477 113.343 83.9478C113.106 83.9478 112.871 83.9052 112.653 83.8225C112.435 83.7398 112.237 83.6186 112.073 83.4663C111.908 83.314 111.78 83.1336 111.695 82.9359C111.61 82.7382 111.571 82.5273 111.579 82.3158C111.596 81.9082 111.789 81.5223 112.118 81.2392C112.446 80.9561 112.885 80.7978 113.342 80.7977C113.799 80.7975 114.238 80.9556 114.567 81.2385C114.896 81.5214 115.09 81.9072 115.106 82.3147ZM137.422 82.3147C137.431 82.5262 137.392 82.7372 137.307 82.9349C137.222 83.1327 137.094 83.3131 136.929 83.4656C136.765 83.618 136.567 83.7393 136.349 83.8221C136.131 83.905 135.896 83.9477 135.659 83.9478C135.422 83.9478 135.187 83.9052 134.969 83.8225C134.75 83.7398 134.553 83.6186 134.388 83.4663C134.224 83.314 134.095 83.1336 134.01 82.9359C133.926 82.7382 133.886 82.5273 133.895 82.3158C133.911 81.9082 134.104 81.5223 134.433 81.2392C134.762 80.9561 135.201 80.7978 135.658 80.7977C136.115 80.7975 136.554 80.9556 136.883 81.2385C137.212 81.5214 137.405 81.9072 137.422 82.3147ZM159.739 82.3147C159.739 82.7324 159.553 83.1331 159.222 83.4284C158.891 83.7238 158.442 83.8897 157.974 83.8897C157.506 83.8897 157.057 83.7238 156.726 83.4284C156.395 83.1331 156.209 82.7324 156.209 82.3147C156.209 81.897 156.395 81.4964 156.726 81.201C157.057 80.9056 157.506 80.7396 157.974 80.7396C158.442 80.7396 158.891 80.9056 159.222 81.201C159.553 81.4964 159.739 81.897 159.739 82.3147ZM182.054 82.3147C182.054 82.7324 181.868 83.1331 181.537 83.4284C181.207 83.7238 180.758 83.8897 180.29 83.8897C179.822 83.8897 179.373 83.7238 179.042 83.4284C178.711 83.1331 178.525 82.7324 178.525 82.3147C178.525 81.897 178.711 81.4964 179.042 81.201C179.373 80.9056 179.822 80.7396 180.29 80.7396C180.758 80.7396 181.207 80.9056 181.537 81.201C181.868 81.4964 182.054 81.897 182.054 82.3147ZM204.37 82.3147C204.37 82.7324 204.184 83.1331 203.853 83.4284C203.522 83.7238 203.073 83.8897 202.605 83.8897C202.137 83.8897 201.688 83.7238 201.357 83.4284C201.026 83.1331 200.84 82.7324 200.84 82.3147C200.84 81.897 201.026 81.4964 201.357 81.201C201.688 80.9056 202.137 80.7396 202.605 80.7396C203.073 80.7396 203.522 80.9056 203.853 81.201C204.184 81.4964 204.37 81.897 204.37 82.3147ZM226.684 82.3147C226.684 82.7324 226.498 83.1331 226.168 83.4284C225.837 83.7238 225.388 83.8897 224.92 83.8897C224.452 83.8897 224.003 83.7238 223.672 83.4284C223.341 83.1331 223.155 82.7324 223.155 82.3147C223.155 81.897 223.341 81.4964 223.672 81.201C224.003 80.9056 224.452 80.7396 224.92 80.7396C225.388 80.7396 225.837 80.9056 226.168 81.201C226.498 81.4964 226.684 81.897 226.684 82.3147ZM249 82.3147C249 82.7324 248.814 83.1331 248.483 83.4284C248.152 83.7238 247.703 83.8897 247.235 83.8897C246.767 83.8897 246.318 83.7238 245.987 83.4284C245.656 83.1331 245.471 82.7324 245.471 82.3147C245.471 81.897 245.656 81.4964 245.987 81.201C246.318 80.9056 246.767 80.7396 247.235 80.7396C247.703 80.7396 248.152 80.9056 248.483 81.201C248.814 81.4964 249 81.897 249 82.3147ZM3.53061 102.501C3.53053 102.707 3.48483 102.912 3.39604 103.103C3.30726 103.295 3.17715 103.468 3.01317 103.614C2.84919 103.761 2.6545 103.877 2.44029 103.956C2.22608 104.035 1.99656 104.076 1.76473 104.076C1.53291 104.076 1.30332 104.035 1.08917 103.955C0.875021 103.876 0.680523 103.76 0.516652 103.614C0.352782 103.467 0.22278 103.294 0.134136 103.102C0.0454915 102.911 -7.71813e-05 102.706 9.8128e-08 102.5C9.81281e-08 102.082 0.185916 101.681 0.516868 101.386C0.847819 101.09 1.2967 100.924 1.76473 100.924C2.23277 100.924 2.68164 101.09 3.01259 101.386C3.34355 101.681 3.52946 102.082 3.52946 102.5L3.53061 102.501ZM25.845 102.501C25.8449 102.918 25.6589 103.319 25.3278 103.614C24.9967 103.909 24.5478 104.075 24.0797 104.075C23.6117 104.075 23.1629 103.909 22.8321 103.613C22.5012 103.318 22.3154 102.917 22.3156 102.5C22.3156 102.082 22.5016 101.681 22.8325 101.386C23.1635 101.09 23.6123 100.924 24.0803 100.924C24.5483 100.924 24.9972 101.09 25.3282 101.386C25.6591 101.681 25.845 102.083 25.845 102.501ZM48.1607 102.501C48.1606 102.707 48.1149 102.912 48.0261 103.103C47.9373 103.295 47.8072 103.468 47.6432 103.614C47.4792 103.761 47.2845 103.877 47.0703 103.956C46.8561 104.035 46.6266 104.076 46.3948 104.076C46.163 104.076 45.9334 104.035 45.7192 103.955C45.5051 103.876 45.3106 103.76 45.1467 103.614C44.9828 103.467 44.8528 103.294 44.7642 103.102C44.6755 102.911 44.63 102.706 44.63 102.5C44.63 102.082 44.816 101.681 45.1471 101.385C45.4781 101.09 45.9272 100.924 46.3954 100.924C46.8635 100.924 47.3126 101.09 47.6436 101.385C47.9747 101.681 48.1607 102.083 48.1607 102.501ZM70.4763 102.501C70.4762 102.707 70.4304 102.912 70.3417 103.103C70.2529 103.295 70.1228 103.468 69.9589 103.614C69.7949 103.761 69.6002 103.877 69.386 103.956C69.1718 104.035 68.9422 104.076 68.7104 104.076C68.4786 104.076 68.249 104.035 68.0349 103.955C67.8207 103.876 67.6261 103.76 67.4623 103.614C67.2984 103.467 67.1685 103.294 67.0798 103.102C66.9912 102.911 66.9456 102.706 66.9457 102.5C66.9457 102.082 67.1316 101.681 67.4626 101.386C67.7935 101.09 68.2424 100.924 68.7104 100.924C69.1784 100.924 69.6273 101.09 69.9582 101.386C70.2892 101.681 70.4751 102.082 70.4751 102.5L70.4763 102.501ZM92.7919 102.501C92.7919 102.707 92.7461 102.912 92.6573 103.103C92.5685 103.295 92.4384 103.468 92.2744 103.614C92.1104 103.761 91.9158 103.877 91.7016 103.956C91.4874 104.035 91.2578 104.076 91.026 104.076C90.7942 104.076 90.5646 104.035 90.3505 103.955C90.1363 103.876 89.9418 103.76 89.7779 103.614C89.614 103.467 89.484 103.294 89.3954 103.102C89.3067 102.911 89.2612 102.706 89.2612 102.5C89.2612 102.082 89.4472 101.681 89.7781 101.386C90.1091 101.09 90.5579 100.924 91.026 100.924C91.494 100.924 91.9429 101.09 92.2738 101.386C92.6048 101.681 92.7907 102.082 92.7907 102.5L92.7919 102.501ZM115.106 102.501C115.106 102.918 114.92 103.319 114.589 103.614C114.259 103.91 113.81 104.076 113.342 104.076C112.874 104.076 112.425 103.91 112.094 103.614C111.763 103.319 111.577 102.918 111.577 102.501C111.577 102.083 111.763 101.682 112.094 101.387C112.425 101.091 112.874 100.925 113.342 100.925C113.81 100.925 114.259 101.091 114.589 101.387C114.92 101.682 115.106 102.083 115.106 102.501ZM137.422 102.501C137.422 102.918 137.236 103.319 136.905 103.614C136.574 103.91 136.125 104.076 135.657 104.076C135.189 104.076 134.74 103.91 134.409 103.614C134.078 103.319 133.893 102.918 133.893 102.501C133.893 102.083 134.078 101.682 134.409 101.387C134.74 101.091 135.189 100.925 135.657 100.925C136.125 100.925 136.574 101.091 136.905 101.387C137.236 101.682 137.422 102.083 137.422 102.501ZM159.739 102.501C159.739 102.918 159.552 103.319 159.221 103.614C158.89 103.91 158.441 104.076 157.973 104.076C157.505 104.075 157.056 103.909 156.725 103.614C156.394 103.318 156.208 102.917 156.208 102.5C156.208 102.082 156.394 101.681 156.725 101.385C157.056 101.09 157.505 100.924 157.973 100.924C158.442 100.924 158.891 101.09 159.222 101.385C159.553 101.681 159.739 102.083 159.739 102.501ZM182.054 102.501C182.054 102.918 181.868 103.319 181.537 103.614C181.206 103.91 180.757 104.076 180.288 104.076C179.82 104.075 179.371 103.909 179.04 103.614C178.709 103.318 178.524 102.917 178.524 102.5C178.524 102.082 178.71 101.681 179.041 101.386C179.372 101.09 179.82 100.924 180.288 100.924C180.756 100.924 181.205 101.09 181.536 101.386C181.867 101.681 182.053 102.082 182.053 102.5L182.054 102.501ZM204.37 102.501C204.37 102.919 204.184 103.319 203.852 103.615C203.521 103.91 203.072 104.076 202.604 104.076C202.135 104.076 201.686 103.91 201.355 103.614C201.024 103.318 200.838 102.918 200.838 102.5C200.838 102.082 201.024 101.681 201.355 101.385C201.686 101.09 202.135 100.924 202.604 100.924C203.072 100.924 203.521 101.09 203.852 101.385C204.183 101.681 204.369 102.082 204.369 102.5L204.37 102.501ZM226.684 102.501C226.684 102.707 226.639 102.912 226.55 103.103C226.461 103.294 226.331 103.468 226.167 103.614C226.003 103.76 225.809 103.876 225.594 103.955C225.38 104.034 225.151 104.075 224.919 104.075C224.687 104.075 224.458 104.034 224.244 103.955C224.03 103.876 223.835 103.76 223.671 103.613C223.508 103.467 223.378 103.293 223.289 103.102C223.2 102.911 223.155 102.706 223.155 102.5C223.155 102.082 223.341 101.681 223.672 101.386C224.003 101.09 224.452 100.924 224.92 100.924C225.388 100.924 225.837 101.09 226.168 101.386C226.498 101.681 226.684 102.083 226.684 102.501ZM249 102.501C249 102.918 248.814 103.319 248.483 103.614C248.151 103.91 247.702 104.076 247.234 104.076C246.766 104.075 246.317 103.909 245.986 103.614C245.655 103.318 245.469 102.917 245.469 102.5C245.469 102.082 245.655 101.681 245.986 101.385C246.317 101.09 246.767 100.924 247.235 100.924C247.703 100.924 248.152 101.09 248.483 101.385C248.814 101.681 249 102.083 249 102.501ZM3.53061 122.685C3.53061 123.103 3.3447 123.504 3.01374 123.799C2.68279 124.094 2.23392 124.26 1.76588 124.26C1.29784 124.26 0.848968 124.094 0.518016 123.799C0.187065 123.504 0.00114901 123.103 0.00114901 122.685C0.00114901 122.268 0.187065 121.867 0.518016 121.572C0.848968 121.276 1.29784 121.11 1.76588 121.11C2.23392 121.11 2.68279 121.276 3.01374 121.572C3.3447 121.867 3.53061 122.268 3.53061 122.685ZM25.845 122.685C25.845 123.103 25.6591 123.504 25.3282 123.799C24.9972 124.094 24.5483 124.26 24.0803 124.26C23.6123 124.26 23.1635 124.094 22.8325 123.799C22.5016 123.504 22.3156 123.103 22.3156 122.685C22.3156 122.268 22.5016 121.867 22.8325 121.572C23.1635 121.276 23.6123 121.11 24.0803 121.11C24.5483 121.11 24.9972 121.276 25.3282 121.572C25.6591 121.867 25.845 122.268 25.845 122.685ZM48.1607 122.685C48.1607 123.103 47.9747 123.504 47.6438 123.799C47.3128 124.094 46.864 124.26 46.3959 124.26C45.9279 124.26 45.479 124.094 45.1481 123.799C44.8171 123.504 44.6312 123.103 44.6312 122.685C44.6312 122.268 44.8171 121.867 45.1481 121.572C45.479 121.276 45.9279 121.11 46.3959 121.11C46.864 121.11 47.3128 121.276 47.6438 121.572C47.9747 121.867 48.1607 122.268 48.1607 122.685ZM70.4763 122.685C70.4763 123.103 70.2904 123.504 69.9594 123.799C69.6285 124.094 69.1796 124.26 68.7116 124.26C68.2435 124.26 67.7947 124.094 67.4637 123.799C67.1327 123.504 66.9468 123.103 66.9468 122.685C66.9468 122.268 67.1327 121.867 67.4637 121.572C67.7947 121.276 68.2435 121.11 68.7116 121.11C69.1796 121.11 69.6285 121.276 69.9594 121.572C70.2904 121.867 70.4763 122.268 70.4763 122.685ZM92.7919 122.685C92.7919 123.103 92.6059 123.504 92.275 123.799C91.944 124.094 91.4952 124.26 91.0272 124.26C90.5592 124.26 90.1103 124.094 89.7793 123.799C89.4484 123.504 89.2625 123.103 89.2625 122.685C89.2625 122.268 89.4484 121.867 89.7793 121.572C90.1103 121.276 90.5592 121.11 91.0272 121.11C91.4952 121.11 91.944 121.276 92.275 121.572C92.6059 121.867 92.7919 122.268 92.7919 122.685ZM115.106 122.685C115.115 122.897 115.076 123.108 114.991 123.306C114.906 123.503 114.778 123.684 114.613 123.836C114.449 123.988 114.251 124.11 114.033 124.192C113.815 124.275 113.58 124.318 113.343 124.318C113.106 124.318 112.871 124.275 112.653 124.192C112.434 124.11 112.237 123.988 112.072 123.836C111.908 123.684 111.779 123.503 111.695 123.306C111.61 123.108 111.571 122.897 111.579 122.685C111.596 122.278 111.789 121.892 112.118 121.609C112.447 121.326 112.886 121.168 113.343 121.168C113.8 121.168 114.239 121.326 114.568 121.609C114.897 121.892 115.09 122.278 115.106 122.685ZM137.422 122.685C137.431 122.897 137.391 123.108 137.307 123.306C137.222 123.503 137.093 123.684 136.929 123.836C136.764 123.988 136.567 124.11 136.349 124.192C136.13 124.275 135.896 124.318 135.658 124.318C135.421 124.318 135.186 124.275 134.968 124.192C134.75 124.11 134.553 123.988 134.388 123.836C134.223 123.684 134.095 123.503 134.01 123.306C133.925 123.108 133.886 122.897 133.895 122.685C133.911 122.278 134.105 121.892 134.434 121.609C134.762 121.326 135.202 121.168 135.658 121.168C136.115 121.168 136.554 121.326 136.883 121.609C137.212 121.892 137.405 122.278 137.422 122.685ZM159.739 122.685C159.739 123.103 159.553 123.504 159.222 123.799C158.891 124.094 158.442 124.26 157.974 124.26C157.506 124.26 157.057 124.094 156.726 123.799C156.395 123.504 156.209 123.103 156.209 122.685C156.209 122.268 156.395 121.867 156.726 121.572C157.057 121.276 157.506 121.11 157.974 121.11C158.442 121.11 158.891 121.276 159.222 121.572C159.553 121.867 159.739 122.268 159.739 122.685ZM182.054 122.685C182.054 123.103 181.868 123.504 181.537 123.799C181.207 124.094 180.758 124.26 180.29 124.26C179.822 124.26 179.373 124.094 179.042 123.799C178.711 123.504 178.525 123.103 178.525 122.685C178.525 122.268 178.711 121.867 179.042 121.572C179.373 121.276 179.822 121.11 180.29 121.11C180.758 121.11 181.207 121.276 181.537 121.572C181.868 121.867 182.054 122.268 182.054 122.685ZM204.37 122.685C204.37 123.103 204.184 123.504 203.853 123.799C203.522 124.094 203.073 124.26 202.605 124.26C202.137 124.26 201.688 124.094 201.357 123.799C201.026 123.504 200.84 123.103 200.84 122.685C200.84 122.268 201.026 121.867 201.357 121.572C201.688 121.276 202.137 121.11 202.605 121.11C203.073 121.11 203.522 121.276 203.853 121.572C204.184 121.867 204.37 122.268 204.37 122.685ZM226.684 122.685C226.684 123.103 226.498 123.504 226.168 123.799C225.837 124.094 225.388 124.26 224.92 124.26C224.452 124.26 224.003 124.094 223.672 123.799C223.341 123.504 223.155 123.103 223.155 122.685C223.155 122.268 223.341 121.867 223.672 121.572C224.003 121.276 224.452 121.11 224.92 121.11C225.388 121.11 225.837 121.276 226.168 121.572C226.498 121.867 226.684 122.268 226.684 122.685ZM249 122.685C249 123.103 248.814 123.504 248.483 123.799C248.152 124.094 247.703 124.26 247.235 124.26C246.767 124.26 246.318 124.094 245.987 123.799C245.656 123.504 245.471 123.103 245.471 122.685C245.471 122.268 245.656 121.867 245.987 121.572C246.318 121.276 246.767 121.11 247.235 121.11C247.703 121.11 248.152 121.276 248.483 121.572C248.814 121.867 249 122.268 249 122.685ZM3.53061 142.87C3.53053 143.077 3.48483 143.282 3.39604 143.473C3.30726 143.664 3.17715 143.838 3.01317 143.984C2.84919 144.13 2.6545 144.246 2.44029 144.325C2.22608 144.405 1.99656 144.445 1.76473 144.445C1.53291 144.445 1.30332 144.404 1.08917 144.325C0.875021 144.246 0.680523 144.13 0.516652 143.983C0.352782 143.837 0.22278 143.663 0.134136 143.472C0.0454915 143.281 -7.71813e-05 143.076 9.8128e-08 142.869C0.00015611 142.451 0.186237 142.051 0.517298 141.756C0.84836 141.46 1.29727 141.294 1.76531 141.295C2.23334 141.295 2.68211 141.461 3.01295 141.756C3.34379 142.052 3.53077 142.452 3.53061 142.87ZM25.845 142.87C25.8449 143.288 25.6589 143.688 25.3278 143.984C24.9967 144.279 24.5478 144.445 24.0797 144.445C23.6117 144.444 23.1629 144.278 22.8321 143.983C22.5012 143.687 22.3154 143.287 22.3156 142.869C22.3157 142.451 22.5018 142.051 22.8329 141.756C23.1639 141.46 23.6129 141.294 24.0809 141.295C24.549 141.295 24.9977 141.461 25.3286 141.756C25.6594 142.052 25.8452 142.452 25.845 142.87ZM48.1607 142.87C48.1606 143.077 48.1149 143.282 48.0261 143.473C47.9373 143.664 47.8072 143.838 47.6432 143.984C47.4792 144.13 47.2845 144.246 47.0703 144.325C46.8561 144.405 46.6266 144.445 46.3948 144.445C46.163 144.445 45.9334 144.404 45.7192 144.325C45.5051 144.246 45.3106 144.13 45.1467 143.983C44.9828 143.837 44.8528 143.663 44.7642 143.472C44.6755 143.281 44.63 143.076 44.63 142.869C44.6302 142.451 44.8163 142.051 45.1475 141.755C45.4787 141.46 45.9277 141.294 46.3959 141.294C46.8641 141.294 47.3131 141.46 47.644 141.756C47.975 142.051 48.1608 142.452 48.1607 142.87ZM70.4763 142.87C70.4762 143.077 70.4304 143.282 70.3417 143.473C70.2529 143.664 70.1228 143.838 69.9589 143.984C69.7949 144.13 69.6002 144.246 69.386 144.325C69.1718 144.405 68.9422 144.445 68.7104 144.445C68.4786 144.445 68.249 144.404 68.0349 144.325C67.8207 144.246 67.6261 144.13 67.4623 143.983C67.2984 143.837 67.1685 143.663 67.0798 143.472C66.9912 143.281 66.9456 143.076 66.9457 142.869C66.9458 142.451 67.1318 142.051 67.4629 141.756C67.794 141.46 68.243 141.294 68.711 141.295C69.179 141.295 69.6278 141.461 69.9586 141.756C70.2895 142.052 70.4765 142.452 70.4763 142.87ZM92.7919 142.87C92.7919 143.077 92.7461 143.282 92.6573 143.473C92.5685 143.664 92.4384 143.838 92.2744 143.984C92.1104 144.13 91.9158 144.246 91.7016 144.325C91.4874 144.405 91.2578 144.445 91.026 144.445C90.7942 144.445 90.5646 144.404 90.3505 144.325C90.1363 144.246 89.9418 144.13 89.7779 143.983C89.614 143.837 89.484 143.663 89.3954 143.472C89.3067 143.281 89.2612 143.076 89.2612 142.869C89.2614 142.451 89.4475 142.051 89.7785 141.756C90.1096 141.46 90.5585 141.294 91.0266 141.295C91.4946 141.295 91.9434 141.461 92.2743 141.756C92.6051 142.052 92.7909 142.452 92.7907 142.87H92.7919ZM115.106 142.87C115.106 143.288 114.92 143.688 114.589 143.984C114.259 144.279 113.81 144.445 113.342 144.445C112.874 144.445 112.425 144.279 112.094 143.984C111.763 143.688 111.577 143.288 111.577 142.87C111.577 142.452 111.763 142.052 112.094 141.756C112.425 141.461 112.874 141.295 113.342 141.295C113.81 141.295 114.259 141.461 114.589 141.756C114.92 142.052 115.106 142.452 115.106 142.87ZM137.422 142.87C137.422 143.288 137.236 143.688 136.905 143.984C136.574 144.279 136.125 144.445 135.657 144.445C135.189 144.445 134.74 144.279 134.409 143.984C134.078 143.688 133.893 143.288 133.893 142.87C133.893 142.452 134.078 142.052 134.409 141.756C134.74 141.461 135.189 141.295 135.657 141.295C136.125 141.295 136.574 141.461 136.905 141.756C137.236 142.052 137.422 142.452 137.422 142.87ZM159.739 142.87C159.739 143.288 159.552 143.689 159.221 143.984C158.89 144.279 158.441 144.445 157.973 144.445C157.505 144.445 157.056 144.279 156.725 143.983C156.394 143.688 156.208 143.287 156.208 142.869C156.208 142.662 156.254 142.457 156.343 142.266C156.432 142.075 156.562 141.901 156.726 141.755C156.89 141.609 157.084 141.493 157.298 141.414C157.513 141.335 157.742 141.294 157.974 141.294C158.206 141.294 158.435 141.335 158.65 141.414C158.864 141.493 159.058 141.609 159.222 141.756C159.386 141.902 159.516 142.076 159.605 142.267C159.693 142.458 159.739 142.663 159.739 142.87ZM182.054 142.87C182.054 143.288 181.868 143.689 181.537 143.984C181.206 144.279 180.757 144.445 180.288 144.445C179.82 144.445 179.371 144.279 179.04 143.983C178.709 143.688 178.524 143.287 178.524 142.869C178.524 142.451 178.71 142.051 179.041 141.756C179.372 141.46 179.821 141.294 180.289 141.295C180.757 141.295 181.206 141.461 181.537 141.756C181.868 142.052 182.054 142.452 182.054 142.87ZM204.37 142.87C204.37 143.288 204.184 143.689 203.852 143.984C203.521 144.28 203.072 144.446 202.604 144.446C202.135 144.446 201.686 144.279 201.355 143.984C201.024 143.688 200.838 143.287 200.838 142.869C200.838 142.662 200.884 142.457 200.973 142.266C201.062 142.075 201.192 141.901 201.356 141.755C201.52 141.609 201.714 141.493 201.928 141.414C202.143 141.335 202.372 141.294 202.604 141.294C202.836 141.294 203.065 141.335 203.28 141.414C203.494 141.493 203.688 141.609 203.852 141.756C204.016 141.902 204.146 142.076 204.235 142.267C204.323 142.458 204.37 142.663 204.37 142.87ZM226.684 142.87C226.684 143.077 226.639 143.282 226.55 143.473C226.461 143.664 226.331 143.837 226.167 143.984C226.003 144.13 225.809 144.246 225.594 144.325C225.38 144.404 225.151 144.445 224.919 144.445C224.687 144.445 224.458 144.404 224.244 144.325C224.03 144.245 223.835 144.129 223.671 143.983C223.508 143.837 223.378 143.663 223.289 143.472C223.2 143.281 223.155 143.076 223.155 142.869C223.155 142.451 223.341 142.051 223.672 141.756C224.003 141.46 224.452 141.294 224.92 141.295C225.388 141.295 225.837 141.461 226.168 141.756C226.499 142.052 226.685 142.452 226.684 142.87ZM249 142.87C249 143.288 248.814 143.689 248.483 143.984C248.151 144.279 247.702 144.445 247.234 144.445C246.766 144.445 246.317 144.279 245.986 143.983C245.655 143.688 245.469 143.287 245.469 142.869C245.469 142.662 245.515 142.457 245.604 142.266C245.693 142.075 245.823 141.901 245.987 141.755C246.151 141.609 246.346 141.493 246.56 141.414C246.774 141.335 247.003 141.294 247.235 141.294C247.467 141.294 247.697 141.335 247.911 141.414C248.125 141.493 248.319 141.609 248.483 141.756C248.647 141.902 248.777 142.076 248.866 142.267C248.955 142.458 249 142.663 249 142.87ZM3.53061 163.055C3.53053 163.262 3.48483 163.467 3.39604 163.658C3.30726 163.849 3.17715 164.023 3.01317 164.169C2.84919 164.315 2.6545 164.431 2.44029 164.51C2.22608 164.589 1.99656 164.63 1.76473 164.63C1.53291 164.63 1.30332 164.589 1.08917 164.51C0.875021 164.431 0.680523 164.314 0.516652 164.168C0.352782 164.022 0.22278 163.848 0.134136 163.657C0.0454915 163.466 -7.71813e-05 163.261 9.8128e-08 163.054C9.81281e-08 162.636 0.185916 162.236 0.516868 161.94C0.847819 161.645 1.2967 161.479 1.76473 161.479C2.23277 161.479 2.68164 161.645 3.01259 161.94C3.34355 162.236 3.52946 162.636 3.52946 163.054L3.53061 163.055ZM25.845 163.055C25.8449 163.473 25.6589 163.873 25.3278 164.168C24.9967 164.464 24.5478 164.63 24.0797 164.629C23.6117 164.629 23.1629 164.463 22.8321 164.168C22.5012 163.872 22.3154 163.472 22.3156 163.054C22.3156 162.636 22.5016 162.236 22.8325 161.94C23.1635 161.645 23.6123 161.479 24.0803 161.479C24.5483 161.479 24.9972 161.645 25.3282 161.94C25.6591 162.236 25.845 162.637 25.845 163.055ZM48.1607 163.055C48.1606 163.262 48.1149 163.467 48.0261 163.658C47.9373 163.849 47.8072 164.023 47.6432 164.169C47.4792 164.315 47.2845 164.431 47.0703 164.51C46.8561 164.589 46.6266 164.63 46.3948 164.63C46.163 164.63 45.9334 164.589 45.7192 164.51C45.5051 164.431 45.3106 164.314 45.1467 164.168C44.9828 164.022 44.8528 163.848 44.7642 163.657C44.6755 163.466 44.63 163.261 44.63 163.054C44.63 162.636 44.816 162.235 45.1471 161.94C45.4781 161.644 45.9272 161.478 46.3954 161.478C46.8635 161.478 47.3126 161.644 47.6436 161.94C47.9747 162.235 48.1607 162.637 48.1607 163.055ZM70.4763 163.055C70.4762 163.262 70.4304 163.467 70.3417 163.658C70.2529 163.849 70.1228 164.023 69.9589 164.169C69.7949 164.315 69.6002 164.431 69.386 164.51C69.1718 164.589 68.9422 164.63 68.7104 164.63C68.4786 164.63 68.249 164.589 68.0349 164.51C67.8207 164.431 67.6261 164.314 67.4623 164.168C67.2984 164.022 67.1685 163.848 67.0798 163.657C66.9912 163.466 66.9456 163.261 66.9457 163.054C66.9457 162.636 67.1316 162.236 67.4626 161.94C67.7935 161.645 68.2424 161.479 68.7104 161.479C69.1784 161.479 69.6273 161.645 69.9582 161.94C70.2892 162.236 70.4751 162.636 70.4751 163.054L70.4763 163.055ZM92.7919 163.055C92.7919 163.262 92.7461 163.467 92.6573 163.658C92.5685 163.849 92.4384 164.023 92.2744 164.169C92.1104 164.315 91.9158 164.431 91.7016 164.51C91.4874 164.589 91.2578 164.63 91.026 164.63C90.7942 164.63 90.5646 164.589 90.3505 164.51C90.1363 164.431 89.9418 164.314 89.7779 164.168C89.614 164.022 89.484 163.848 89.3954 163.657C89.3067 163.466 89.2612 163.261 89.2612 163.054C89.2612 162.636 89.4472 162.236 89.7781 161.94C90.1091 161.645 90.5579 161.479 91.026 161.479C91.494 161.479 91.9429 161.645 92.2738 161.94C92.6048 162.236 92.7907 162.636 92.7907 163.054L92.7919 163.055ZM115.106 163.055C115.106 163.473 114.92 163.873 114.589 164.169C114.259 164.464 113.81 164.63 113.342 164.63C112.874 164.63 112.425 164.464 112.094 164.169C111.763 163.873 111.577 163.473 111.577 163.055C111.577 162.637 111.763 162.237 112.094 161.941C112.425 161.646 112.874 161.48 113.342 161.48C113.81 161.48 114.259 161.646 114.589 161.941C114.92 162.237 115.106 162.637 115.106 163.055ZM137.422 163.055C137.422 163.473 137.236 163.873 136.905 164.169C136.574 164.464 136.125 164.63 135.657 164.63C135.189 164.63 134.74 164.464 134.409 164.169C134.078 163.873 133.893 163.473 133.893 163.055C133.893 162.637 134.078 162.237 134.409 161.941C134.74 161.646 135.189 161.48 135.657 161.48C136.125 161.48 136.574 161.646 136.905 161.941C137.236 162.237 137.422 162.637 137.422 163.055ZM159.739 163.055C159.739 163.473 159.552 163.873 159.221 164.169C158.89 164.464 158.441 164.63 157.973 164.63C157.505 164.63 157.056 164.464 156.725 164.168C156.394 163.873 156.208 163.472 156.208 163.054C156.208 162.636 156.394 162.235 156.725 161.94C157.056 161.644 157.505 161.478 157.973 161.478C158.442 161.478 158.891 161.644 159.222 161.94C159.553 162.235 159.739 162.637 159.739 163.055ZM182.054 163.055C182.054 163.473 181.868 163.873 181.537 164.169C181.206 164.464 180.757 164.63 180.288 164.63C179.82 164.63 179.371 164.464 179.04 164.168C178.709 163.873 178.524 163.472 178.524 163.054C178.524 162.636 178.71 162.236 179.041 161.94C179.372 161.645 179.82 161.479 180.288 161.479C180.756 161.479 181.205 161.645 181.536 161.94C181.867 162.236 182.053 162.636 182.053 163.054L182.054 163.055ZM204.37 163.055C204.37 163.262 204.324 163.467 204.235 163.658C204.147 163.849 204.016 164.023 203.852 164.169C203.688 164.316 203.494 164.432 203.279 164.511C203.065 164.59 202.835 164.631 202.604 164.63C202.372 164.63 202.142 164.59 201.928 164.51C201.714 164.431 201.519 164.315 201.355 164.168C201.191 164.022 201.061 163.848 200.972 163.657C200.884 163.466 200.838 163.261 200.838 163.054C200.838 162.636 201.024 162.235 201.355 161.94C201.686 161.644 202.135 161.478 202.604 161.478C203.072 161.478 203.521 161.644 203.852 161.94C204.183 162.235 204.369 162.636 204.369 163.054L204.37 163.055ZM226.684 163.055C226.684 163.262 226.639 163.467 226.55 163.658C226.461 163.849 226.331 164.022 226.167 164.168C226.003 164.315 225.809 164.431 225.594 164.51C225.38 164.589 225.151 164.629 224.919 164.629C224.687 164.629 224.458 164.589 224.244 164.509C224.03 164.43 223.835 164.314 223.671 164.168C223.508 164.021 223.378 163.848 223.289 163.657C223.2 163.465 223.155 163.261 223.155 163.054C223.155 162.636 223.341 162.236 223.672 161.94C224.003 161.645 224.452 161.479 224.92 161.479C225.388 161.479 225.837 161.645 226.168 161.94C226.498 162.236 226.684 162.637 226.684 163.055ZM249 163.055C249 163.473 248.814 163.873 248.483 164.169C248.151 164.464 247.702 164.63 247.234 164.63C246.766 164.63 246.317 164.464 245.986 164.168C245.655 163.873 245.469 163.472 245.469 163.054C245.469 162.636 245.655 162.235 245.986 161.94C246.317 161.644 246.767 161.478 247.235 161.478C247.703 161.478 248.152 161.644 248.483 161.94C248.814 162.235 249 162.637 249 163.055ZM3.53061 183.239C3.53061 183.656 3.3447 184.057 3.01374 184.352C2.68279 184.648 2.23392 184.814 1.76588 184.814C1.29784 184.814 0.848968 184.648 0.518016 184.352C0.187065 184.057 0.00114901 183.656 0.00114901 183.239C0.00114901 182.821 0.187065 182.42 0.518016 182.125C0.848968 181.829 1.29784 181.664 1.76588 181.664C2.23392 181.664 2.68279 181.829 3.01374 182.125C3.3447 182.42 3.53061 182.821 3.53061 183.239ZM25.845 183.239C25.845 183.656 25.6591 184.057 25.3282 184.352C24.9972 184.648 24.5483 184.814 24.0803 184.814C23.6123 184.814 23.1635 184.648 22.8325 184.352C22.5016 184.057 22.3156 183.656 22.3156 183.239C22.3156 182.821 22.5016 182.42 22.8325 182.125C23.1635 181.829 23.6123 181.664 24.0803 181.664C24.5483 181.664 24.9972 181.829 25.3282 182.125C25.6591 182.42 25.845 182.821 25.845 183.239ZM48.1607 183.239C48.1607 183.656 47.9747 184.057 47.6438 184.352C47.3128 184.648 46.864 184.814 46.3959 184.814C45.9279 184.814 45.479 184.648 45.1481 184.352C44.8171 184.057 44.6312 183.656 44.6312 183.239C44.6312 182.821 44.8171 182.42 45.1481 182.125C45.479 181.829 45.9279 181.664 46.3959 181.664C46.864 181.664 47.3128 181.829 47.6438 182.125C47.9747 182.42 48.1607 182.821 48.1607 183.239ZM70.4763 183.239C70.4763 183.656 70.2904 184.057 69.9594 184.352C69.6285 184.648 69.1796 184.814 68.7116 184.814C68.2435 184.814 67.7947 184.648 67.4637 184.352C67.1327 184.057 66.9468 183.656 66.9468 183.239C66.9468 182.821 67.1327 182.42 67.4637 182.125C67.7947 181.829 68.2435 181.664 68.7116 181.664C69.1796 181.664 69.6285 181.829 69.9594 182.125C70.2904 182.42 70.4763 182.821 70.4763 183.239ZM92.7919 183.239C92.7919 183.656 92.6059 184.057 92.275 184.352C91.944 184.648 91.4952 184.814 91.0272 184.814C90.5592 184.814 90.1103 184.648 89.7793 184.352C89.4484 184.057 89.2625 183.656 89.2625 183.239C89.2625 182.821 89.4484 182.42 89.7793 182.125C90.1103 181.829 90.5592 181.664 91.0272 181.664C91.4952 181.664 91.944 181.829 92.275 182.125C92.6059 182.42 92.7919 182.821 92.7919 183.239ZM115.106 183.239C115.115 183.45 115.076 183.661 114.992 183.859C114.907 184.057 114.779 184.237 114.614 184.39C114.45 184.542 114.252 184.663 114.034 184.746C113.816 184.829 113.581 184.872 113.344 184.872C113.107 184.872 112.872 184.83 112.654 184.747C112.435 184.665 112.238 184.543 112.073 184.391C111.908 184.239 111.78 184.059 111.695 183.861C111.61 183.663 111.571 183.452 111.579 183.241C111.596 182.833 111.788 182.447 112.117 182.164C112.446 181.881 112.885 181.722 113.342 181.722C113.799 181.722 114.238 181.88 114.567 182.163C114.896 182.445 115.089 182.831 115.106 183.239ZM137.422 183.239C137.431 183.45 137.392 183.661 137.307 183.859C137.223 184.057 137.094 184.237 136.93 184.39C136.765 184.542 136.568 184.663 136.35 184.746C136.131 184.829 135.897 184.872 135.66 184.872C135.422 184.872 135.188 184.83 134.969 184.747C134.751 184.665 134.554 184.543 134.389 184.391C134.224 184.239 134.095 184.059 134.011 183.861C133.926 183.663 133.886 183.452 133.895 183.241C133.911 182.833 134.104 182.447 134.433 182.164C134.761 181.881 135.2 181.722 135.657 181.722C136.114 181.722 136.553 181.88 136.882 182.163C137.212 182.445 137.405 182.831 137.422 183.239ZM159.739 183.239C159.739 183.656 159.553 184.057 159.222 184.352C158.891 184.648 158.442 184.814 157.974 184.814C157.506 184.814 157.057 184.648 156.726 184.352C156.395 184.057 156.209 183.656 156.209 183.239C156.209 182.821 156.395 182.42 156.726 182.125C157.057 181.829 157.506 181.664 157.974 181.664C158.442 181.664 158.891 181.829 159.222 182.125C159.553 182.42 159.739 182.821 159.739 183.239ZM182.054 183.239C182.054 183.656 181.868 184.057 181.537 184.352C181.207 184.648 180.758 184.814 180.29 184.814C179.822 184.814 179.373 184.648 179.042 184.352C178.711 184.057 178.525 183.656 178.525 183.239C178.525 182.821 178.711 182.42 179.042 182.125C179.373 181.829 179.822 181.664 180.29 181.664C180.758 181.664 181.207 181.829 181.537 182.125C181.868 182.42 182.054 182.821 182.054 183.239ZM204.37 183.239C204.37 183.656 204.184 184.057 203.853 184.352C203.522 184.648 203.073 184.814 202.605 184.814C202.137 184.814 201.688 184.648 201.357 184.352C201.026 184.057 200.84 183.656 200.84 183.239C200.84 182.821 201.026 182.42 201.357 182.125C201.688 181.829 202.137 181.664 202.605 181.664C203.073 181.664 203.522 181.829 203.853 182.125C204.184 182.42 204.37 182.821 204.37 183.239ZM226.684 183.239C226.684 183.656 226.498 184.057 226.168 184.352C225.837 184.648 225.388 184.814 224.92 184.814C224.452 184.814 224.003 184.648 223.672 184.352C223.341 184.057 223.155 183.656 223.155 183.239C223.155 182.821 223.341 182.42 223.672 182.125C224.003 181.829 224.452 181.664 224.92 181.664C225.388 181.664 225.837 181.829 226.168 182.125C226.498 182.42 226.684 182.821 226.684 183.239ZM249 183.239C249 183.656 248.814 184.057 248.483 184.352C248.152 184.648 247.703 184.814 247.235 184.814C246.767 184.814 246.318 184.648 245.987 184.352C245.656 184.057 245.471 183.656 245.471 183.239C245.471 182.821 245.656 182.42 245.987 182.125C246.318 181.829 246.767 181.664 247.235 181.664C247.703 181.664 248.152 181.829 248.483 182.125C248.814 182.42 249 182.821 249 183.239ZM3.53061 203.424C3.53053 203.631 3.48483 203.836 3.39604 204.027C3.30726 204.219 3.17715 204.392 3.01317 204.538C2.84919 204.685 2.6545 204.801 2.44029 204.88C2.22608 204.959 1.99656 205 1.76473 204.999C1.53291 204.999 1.30332 204.959 1.08917 204.879C0.875021 204.8 0.680523 204.684 0.516652 204.538C0.352782 204.391 0.22278 204.218 0.134136 204.026C0.0454915 203.835 -7.71813e-05 203.63 9.8128e-08 203.423C9.81281e-08 203.006 0.185916 202.605 0.516868 202.31C0.847819 202.014 1.2967 201.848 1.76473 201.848C2.23277 201.848 2.68164 202.014 3.01259 202.31C3.34355 202.605 3.52946 203.006 3.52946 203.423L3.53061 203.424ZM25.845 203.424C25.8449 203.842 25.6589 204.243 25.3278 204.538C24.9967 204.833 24.5478 204.999 24.0797 204.999C23.6117 204.999 23.1629 204.833 22.8321 204.537C22.5012 204.242 22.3154 203.841 22.3156 203.423C22.3156 203.006 22.5016 202.605 22.8325 202.31C23.1635 202.014 23.6123 201.848 24.0803 201.848C24.5483 201.848 24.9972 202.014 25.3282 202.31C25.6591 202.605 25.845 203.007 25.845 203.424ZM48.1607 203.424C48.1606 203.631 48.1149 203.836 48.0261 204.027C47.9373 204.219 47.8072 204.392 47.6432 204.538C47.4792 204.685 47.2845 204.801 47.0703 204.88C46.8561 204.959 46.6266 205 46.3948 204.999C46.163 204.999 45.9334 204.959 45.7192 204.879C45.5051 204.8 45.3106 204.684 45.1467 204.538C44.9828 204.391 44.8528 204.218 44.7642 204.026C44.6755 203.835 44.63 203.63 44.63 203.423C44.63 203.006 44.816 202.605 45.1471 202.309C45.4781 202.014 45.9272 201.848 46.3954 201.848C46.8635 201.848 47.3126 202.014 47.6436 202.309C47.9747 202.605 48.1607 203.007 48.1607 203.424ZM70.4763 203.424C70.4762 203.631 70.4304 203.836 70.3417 204.027C70.2529 204.219 70.1228 204.392 69.9589 204.538C69.7949 204.685 69.6002 204.801 69.386 204.88C69.1718 204.959 68.9422 205 68.7104 204.999C68.4786 204.999 68.249 204.959 68.0349 204.879C67.8207 204.8 67.6261 204.684 67.4623 204.538C67.2984 204.391 67.1685 204.218 67.0798 204.026C66.9912 203.835 66.9456 203.63 66.9457 203.423C66.9457 203.006 67.1316 202.605 67.4626 202.31C67.7935 202.014 68.2424 201.848 68.7104 201.848C69.1784 201.848 69.6273 202.014 69.9582 202.31C70.2892 202.605 70.4751 203.006 70.4751 203.423L70.4763 203.424ZM92.7919 203.424C92.7919 203.631 92.7461 203.836 92.6573 204.027C92.5685 204.219 92.4384 204.392 92.2744 204.538C92.1104 204.685 91.9158 204.801 91.7016 204.88C91.4874 204.959 91.2578 205 91.026 204.999C90.7942 204.999 90.5646 204.959 90.3505 204.879C90.1363 204.8 89.9418 204.684 89.7779 204.538C89.614 204.391 89.484 204.218 89.3954 204.026C89.3067 203.835 89.2612 203.63 89.2612 203.423C89.2612 203.006 89.4472 202.605 89.7781 202.31C90.1091 202.014 90.5579 201.848 91.026 201.848C91.494 201.848 91.9429 202.014 92.2738 202.31C92.6048 202.605 92.7907 203.006 92.7907 203.423L92.7919 203.424ZM115.106 203.424C115.106 203.842 114.92 204.243 114.589 204.538C114.259 204.834 113.81 204.999 113.342 204.999C112.874 204.999 112.425 204.834 112.094 204.538C111.763 204.243 111.577 203.842 111.577 203.424C111.577 203.007 111.763 202.606 112.094 202.311C112.425 202.015 112.874 201.849 113.342 201.849C113.81 201.849 114.259 202.015 114.589 202.311C114.92 202.606 115.106 203.007 115.106 203.424ZM137.422 203.424C137.422 203.842 137.236 204.243 136.905 204.538C136.574 204.834 136.125 204.999 135.657 204.999C135.189 204.999 134.74 204.834 134.409 204.538C134.078 204.243 133.893 203.842 133.893 203.424C133.893 203.007 134.078 202.606 134.409 202.311C134.74 202.015 135.189 201.849 135.657 201.849C136.125 201.849 136.574 202.015 136.905 202.311C137.236 202.606 137.422 203.007 137.422 203.424ZM159.739 203.424C159.739 203.842 159.552 204.243 159.221 204.538C158.89 204.834 158.441 205 157.973 204.999C157.505 204.999 157.056 204.833 156.725 204.538C156.394 204.242 156.208 203.841 156.208 203.423C156.208 203.006 156.394 202.605 156.725 202.309C157.056 202.014 157.505 201.848 157.973 201.848C158.442 201.848 158.891 202.014 159.222 202.309C159.553 202.605 159.739 203.007 159.739 203.424ZM182.054 203.424C182.054 203.842 181.868 204.243 181.537 204.538C181.206 204.834 180.757 205 180.288 204.999C179.82 204.999 179.371 204.833 179.04 204.538C178.709 204.242 178.524 203.841 178.524 203.423C178.524 203.006 178.71 202.605 179.041 202.31C179.372 202.014 179.82 201.848 180.288 201.848C180.756 201.848 181.205 202.014 181.536 202.31C181.867 202.605 182.053 203.006 182.053 203.423L182.054 203.424ZM204.37 203.424C204.37 203.842 204.184 204.243 203.852 204.539C203.521 204.834 203.072 205 202.604 205C202.135 205 201.686 204.834 201.355 204.538C201.024 204.242 200.838 203.841 200.838 203.423C200.838 203.006 201.024 202.605 201.355 202.309C201.686 202.014 202.135 201.848 202.604 201.848C203.072 201.848 203.521 202.014 203.852 202.309C204.183 202.605 204.369 203.006 204.369 203.423L204.37 203.424ZM226.684 203.424C226.684 203.631 226.639 203.836 226.55 204.027C226.461 204.218 226.331 204.392 226.167 204.538C226.003 204.684 225.809 204.8 225.594 204.879C225.38 204.958 225.151 204.999 224.919 204.999C224.687 204.999 224.458 204.958 224.244 204.879C224.03 204.8 223.835 204.684 223.671 204.537C223.508 204.391 223.378 204.217 223.289 204.026C223.2 203.835 223.155 203.63 223.155 203.423C223.155 203.006 223.341 202.605 223.672 202.31C224.003 202.014 224.452 201.848 224.92 201.848C225.388 201.848 225.837 202.014 226.168 202.31C226.498 202.605 226.684 203.007 226.684 203.424ZM249 203.424C249 203.842 248.814 204.243 248.483 204.538C248.151 204.834 247.702 205 247.234 204.999C246.766 204.999 246.317 204.833 245.986 204.538C245.655 204.242 245.469 203.841 245.469 203.423C245.469 203.006 245.655 202.605 245.986 202.309C246.317 202.014 246.767 201.848 247.235 201.848C247.703 201.848 248.152 202.014 248.483 202.309C248.814 202.605 249 203.007 249 203.424Z" fill="#FBFBFB"/>
</svg>