<svg xmlns="http://www.w3.org/2000/svg" width="249" height="250" viewBox="0 0 249 250" fill="none">
<path d="M3.53061 1.92142C3.53061 2.43101 3.34466 2.91973 3.0136 3.28006C2.68254 3.6404 2.2335 3.84287 1.76531 3.84287C1.29711 3.84287 0.848073 3.6404 0.517011 3.28006C0.18595 2.91973 9.8128e-08 2.43101 9.8128e-08 1.92142C9.8128e-08 1.41199 0.185916 0.923419 0.516868 0.563201C0.847819 0.202983 1.2967 0.000625258 1.76473 0.000625258C2.23277 0.000625258 2.68164 0.202983 3.01259 0.563201C3.34355 0.923419 3.53061 1.41199 3.53061 1.92142ZM25.845 1.92142C25.845 2.43084 25.6591 2.91942 25.3282 3.27963C24.9972 3.63985 24.5483 3.84221 24.0803 3.84221C23.6123 3.84221 23.1635 3.63985 22.8325 3.27963C22.5016 2.91942 22.3156 2.43084 22.3156 1.92142C22.3156 1.41199 22.5016 0.923419 22.8325 0.563201C23.1635 0.202983 23.6123 0.000625258 24.0803 0.000625258C24.5483 0.000625258 24.9972 0.202983 25.3282 0.563201C25.6591 0.923419 25.845 1.41199 25.845 1.92142ZM48.1607 1.92142C48.1607 2.43101 47.9747 2.91973 47.6436 3.28006C47.3126 3.6404 46.8635 3.84287 46.3954 3.84287C45.9272 3.84287 45.4781 3.6404 45.1471 3.28006C44.816 2.91973 44.63 2.43101 44.63 1.92142C44.63 1.41182 44.816 0.92311 45.1471 0.562771C45.4781 0.202433 45.9272 0 46.3954 0C46.8635 0 47.3126 0.202433 47.6436 0.562771C47.9747 0.92311 48.1607 1.41182 48.1607 1.92142ZM70.4763 1.92142C70.4763 2.43101 70.2903 2.91973 69.9592 3.28006C69.6281 3.6404 69.1792 3.84287 68.711 3.84287C68.2428 3.84287 67.7938 3.6404 67.4627 3.28006C67.1316 2.91973 66.9457 2.43101 66.9457 1.92142C66.9457 1.41199 67.1316 0.923419 67.4626 0.563201C67.7935 0.202983 68.2424 0.000625258 68.7104 0.000625258C69.1784 0.000625258 69.6273 0.202983 69.9582 0.563201C70.2892 0.923419 70.4763 1.41199 70.4763 1.92142ZM92.7919 1.92142C92.7919 2.43101 92.6059 2.91973 92.2748 3.28006C91.9438 3.6404 91.4947 3.84287 91.0266 3.84287C90.5584 3.84287 90.1094 3.6404 89.7783 3.28006C89.4473 2.91973 89.2612 2.43101 89.2612 1.92142C89.2612 1.41199 89.4472 0.923419 89.7781 0.563201C90.1091 0.202983 90.5579 0.000625258 91.026 0.000625258C91.494 0.000625258 91.9429 0.202983 92.2738 0.563201C92.6048 0.923419 92.7907 1.41199 92.7907 1.92142H92.7919ZM115.106 1.92142C115.106 2.43084 114.92 2.91942 114.589 3.27963C114.259 3.63985 113.81 3.84221 113.342 3.84221C112.874 3.84221 112.425 3.63985 112.094 3.27963C111.763 2.91942 111.577 2.43084 111.577 1.92142C111.577 1.41199 111.763 0.923419 112.094 0.563201C112.425 0.202983 112.874 0.000625258 113.342 0.000625258C113.81 0.000625258 114.259 0.202983 114.589 0.563201C114.92 0.923419 115.106 1.41199 115.106 1.92142ZM137.422 1.92142C137.422 2.43084 137.236 2.91942 136.905 3.27963C136.574 3.63985 136.125 3.84221 135.657 3.84221C135.189 3.84221 134.74 3.63985 134.409 3.27963C134.078 2.91942 133.893 2.43084 133.893 1.92142C133.893 1.41199 134.078 0.923419 134.409 0.563201C134.74 0.202983 135.189 0.000625258 135.657 0.000625258C136.125 0.000625258 136.574 0.202983 136.905 0.563201C137.236 0.923419 137.422 1.41199 137.422 1.92142ZM159.739 1.92142C159.739 2.43101 159.553 2.91973 159.222 3.28006C158.891 3.6404 158.442 3.84287 157.973 3.84287C157.505 3.84287 157.056 3.6404 156.725 3.28006C156.394 2.91973 156.208 2.43101 156.208 1.92142C156.208 1.41182 156.394 0.92311 156.725 0.562771C157.056 0.202433 157.505 0 157.973 0C158.442 0 158.891 0.202433 159.222 0.562771C159.553 0.92311 159.739 1.41182 159.739 1.92142ZM182.054 1.92142C182.054 2.43101 181.868 2.91973 181.537 3.28006C181.206 3.6404 180.757 3.84287 180.289 3.84287C179.821 3.84287 179.372 3.6404 179.041 3.28006C178.71 2.91973 178.524 2.43101 178.524 1.92142C178.524 1.41199 178.71 0.923419 179.041 0.563201C179.372 0.202983 179.82 0.000625258 180.288 0.000625258C180.756 0.000625258 181.205 0.202983 181.536 0.563201C181.867 0.923419 182.054 1.41199 182.054 1.92142ZM204.37 1.92142C204.37 2.43118 204.184 2.92007 203.853 3.28053C203.522 3.64099 203.072 3.8435 202.604 3.8435C202.136 3.8435 201.687 3.64099 201.355 3.28053C201.024 2.92007 200.838 2.43118 200.838 1.92142C200.838 1.41182 201.024 0.92311 201.355 0.562771C201.686 0.202433 202.135 0 202.604 0C203.072 0 203.521 0.202433 203.852 0.562771C204.183 0.92311 204.37 1.41182 204.37 1.92142ZM226.684 1.92142C226.684 2.43084 226.498 2.91942 226.168 3.27963C225.837 3.63985 225.388 3.84221 224.92 3.84221C224.452 3.84221 224.003 3.63985 223.672 3.27963C223.341 2.91942 223.155 2.43084 223.155 1.92142C223.155 1.41199 223.341 0.923419 223.672 0.563201C224.003 0.202983 224.452 0.000625258 224.92 0.000625258C225.388 0.000625258 225.837 0.202983 226.168 0.563201C226.498 0.923419 226.684 1.41199 226.684 1.92142ZM249 1.92142C249 2.43101 248.814 2.91973 248.483 3.28006C248.152 3.6404 247.703 3.84287 247.235 3.84287C246.767 3.84287 246.317 3.6404 245.986 3.28006C245.655 2.91973 245.469 2.43101 245.469 1.92142C245.469 1.41182 245.655 0.92311 245.986 0.562771C246.317 0.202433 246.767 0 247.235 0C247.703 0 248.152 0.202433 248.483 0.562771C248.814 0.92311 249 1.41182 249 1.92142ZM3.53061 26.537C3.53053 26.7893 3.48483 27.0392 3.39604 27.2723C3.30726 27.5053 3.17715 27.7171 3.01317 27.8955C2.84919 28.0739 2.6545 28.2153 2.44029 28.3118C2.22608 28.4083 1.99656 28.4579 1.76473 28.4578C1.53291 28.4577 1.30332 28.4079 1.08917 28.3113C0.875021 28.2146 0.680523 28.0731 0.516652 27.8946C0.352782 27.7161 0.22278 27.5042 0.134136 27.2711C0.0454915 27.0379 -7.71813e-05 26.7881 9.8128e-08 26.5357C0.00015611 26.0263 0.186237 25.5378 0.517298 25.1777C0.84836 24.8176 1.29727 24.6154 1.76531 24.6156C2.23334 24.6158 2.68211 24.8183 3.01295 25.1786C3.34379 25.539 3.53077 26.0276 3.53061 26.537ZM25.845 26.537C25.8449 27.0464 25.6589 27.5349 25.3278 27.895C24.9967 28.2551 24.5478 28.4573 24.0797 28.4572C23.6117 28.457 23.1629 28.2545 22.8321 27.8941C22.5012 27.5338 22.3154 27.0452 22.3156 26.5357C22.3157 26.0263 22.5018 25.5378 22.8329 25.1777C23.1639 24.8176 23.6129 24.6154 24.0809 24.6156C24.549 24.6158 24.9977 24.8183 25.3286 25.1786C25.6594 25.539 25.8452 26.0276 25.845 26.537ZM48.1607 26.537C48.1606 26.7893 48.1149 27.0392 48.0261 27.2723C47.9373 27.5053 47.8072 27.7171 47.6432 27.8955C47.4792 28.0739 47.2845 28.2153 47.0703 28.3118C46.8561 28.4083 46.6266 28.4579 46.3948 28.4578C46.163 28.4577 45.9334 28.4079 45.7192 28.3113C45.5051 28.2146 45.3106 28.0731 45.1467 27.8946C44.9828 27.7161 44.8528 27.5042 44.7642 27.2711C44.6755 27.0379 44.63 26.7881 44.63 26.5357C44.6302 26.0262 44.8163 25.5375 45.1475 25.1773C45.4787 24.817 45.9277 24.6148 46.3959 24.615C46.8641 24.6151 47.3131 24.8177 47.644 25.1782C47.975 25.5386 48.1608 26.0274 48.1607 26.537ZM70.4763 26.537C70.4762 26.7893 70.4304 27.0392 70.3417 27.2723C70.2529 27.5053 70.1228 27.7171 69.9589 27.8955C69.7949 28.0739 69.6002 28.2153 69.386 28.3118C69.1718 28.4083 68.9422 28.4579 68.7104 28.4578C68.4786 28.4577 68.249 28.4079 68.0349 28.3113C67.8207 28.2146 67.6261 28.0731 67.4623 27.8946C67.2984 27.7161 67.1685 27.5042 67.0798 27.2711C66.9912 27.0379 66.9456 26.7881 66.9457 26.5357C66.9458 26.0263 67.1318 25.5378 67.4629 25.1777C67.794 24.8176 68.243 24.6154 68.711 24.6156C69.179 24.6158 69.6278 24.8183 69.9586 25.1786C70.2895 25.539 70.4765 26.0276 70.4763 26.537ZM92.7919 26.537C92.7919 26.7893 92.7461 27.0392 92.6573 27.2723C92.5685 27.5053 92.4384 27.7171 92.2744 27.8955C92.1104 28.0739 91.9158 28.2153 91.7016 28.3118C91.4874 28.4083 91.2578 28.4579 91.026 28.4578C90.7942 28.4577 90.5646 28.4079 90.3505 28.3113C90.1363 28.2146 89.9418 28.0731 89.7779 27.8946C89.614 27.7161 89.484 27.5042 89.3954 27.2711C89.3067 27.0379 89.2612 26.7881 89.2612 26.5357C89.2614 26.0263 89.4475 25.5378 89.7785 25.1777C90.1096 24.8176 90.5585 24.6154 91.0266 24.6156C91.4946 24.6158 91.9434 24.8183 92.2743 25.1786C92.6051 25.539 92.7909 26.0276 92.7907 26.537H92.7919ZM115.106 26.537C115.106 27.0464 114.92 27.535 114.589 27.8952C114.259 28.2554 113.81 28.4578 113.342 28.4578C112.874 28.4578 112.425 28.2554 112.094 27.8952C111.763 27.535 111.577 27.0464 111.577 26.537C111.577 26.0276 111.763 25.539 112.094 25.1788C112.425 24.8186 112.874 24.6162 113.342 24.6162C113.81 24.6162 114.259 24.8186 114.589 25.1788C114.92 25.539 115.106 26.0276 115.106 26.537ZM137.422 26.537C137.422 27.0464 137.236 27.535 136.905 27.8952C136.574 28.2554 136.125 28.4578 135.657 28.4578C135.189 28.4578 134.74 28.2554 134.409 27.8952C134.078 27.535 133.893 27.0464 133.893 26.537C133.893 26.0276 134.078 25.539 134.409 25.1788C134.74 24.8186 135.189 24.6162 135.657 24.6162C136.125 24.6162 136.574 24.8186 136.905 25.1788C137.236 25.539 137.422 26.0276 137.422 26.537ZM159.739 26.537C159.739 27.0466 159.552 27.5353 159.221 27.8955C158.89 28.2557 158.441 28.458 157.973 28.4578C157.505 28.4576 157.056 28.255 156.725 27.8946C156.394 27.5341 156.208 27.0453 156.208 26.5357C156.208 26.0262 156.394 25.5375 156.726 25.1773C157.057 24.817 157.506 24.6148 157.974 24.615C158.442 24.6151 158.891 24.8177 159.222 25.1782C159.553 25.5386 159.739 26.0274 159.739 26.537ZM182.054 26.537C182.054 27.0466 181.868 27.5353 181.537 27.8955C181.206 28.2557 180.757 28.458 180.288 28.4578C179.82 28.4576 179.371 28.255 179.04 27.8946C178.709 27.5341 178.524 27.0453 178.524 26.5357C178.524 26.0263 178.71 25.5378 179.041 25.1777C179.372 24.8176 179.821 24.6154 180.289 24.6156C180.757 24.6158 181.206 24.8183 181.537 25.1786C181.868 25.539 182.054 26.0276 182.054 26.537ZM204.37 26.537C204.37 26.7894 204.324 27.0393 204.235 27.2725C204.147 27.5057 204.016 27.7175 203.852 27.896C203.688 28.0744 203.494 28.2159 203.279 28.3124C203.065 28.4089 202.835 28.4585 202.604 28.4585C202.372 28.4584 202.142 28.4086 201.928 28.3119C201.714 28.2152 201.519 28.0736 201.355 27.895C201.191 27.7165 201.061 27.5046 200.972 27.2713C200.884 27.0381 200.838 26.7882 200.838 26.5357C200.838 26.0262 201.024 25.5375 201.356 25.1773C201.687 24.817 202.136 24.6148 202.604 24.615C203.072 24.6151 203.521 24.8177 203.852 25.1782C204.183 25.5386 204.37 26.0274 204.37 26.537ZM226.684 26.537C226.684 26.7892 226.639 27.039 226.55 27.272C226.461 27.505 226.331 27.7167 226.167 27.895C226.003 28.0733 225.809 28.2148 225.594 28.3112C225.38 28.4077 225.151 28.4572 224.919 28.4572C224.687 28.4571 224.458 28.4073 224.244 28.3107C224.03 28.2141 223.835 28.0725 223.671 27.8941C223.508 27.7157 223.378 27.5039 223.289 27.2709C223.2 27.0378 223.155 26.788 223.155 26.5357C223.155 26.0263 223.341 25.5378 223.672 25.1777C224.003 24.8176 224.452 24.6154 224.92 24.6156C225.388 24.6158 225.837 24.8183 226.168 25.1786C226.499 25.539 226.685 26.0276 226.684 26.537ZM249 26.537C249 27.0466 248.814 27.5353 248.483 27.8955C248.151 28.2557 247.702 28.458 247.234 28.4578C246.766 28.4576 246.317 28.255 245.986 27.8946C245.655 27.5341 245.469 27.0453 245.469 26.5357C245.47 26.0262 245.656 25.5375 245.987 25.1773C246.318 24.817 246.767 24.6148 247.235 24.615C247.703 24.6151 248.152 24.8177 248.483 25.1782C248.814 25.5386 249 26.0274 249 26.537ZM3.53061 51.1539C3.53053 51.4062 3.48483 51.656 3.39604 51.8891C3.30726 52.1222 3.17715 52.334 3.01317 52.5124C2.84919 52.6907 2.6545 52.8322 2.44029 52.9287C2.22608 53.0251 1.99656 53.0747 1.76473 53.0747C1.53291 53.0746 1.30332 53.0248 1.08917 52.9282C0.875021 52.8315 0.680523 52.6899 0.516652 52.5115C0.352782 52.333 0.22278 52.1211 0.134136 51.888C0.0454915 51.6548 -7.71813e-05 51.4049 9.8128e-08 51.1526C9.81281e-08 50.6432 0.185916 50.1546 0.516868 49.7944C0.847819 49.4342 1.2967 49.2318 1.76473 49.2318C2.23277 49.2318 2.68164 49.4342 3.01259 49.7944C3.34355 50.1546 3.52946 50.6432 3.52946 51.1526L3.53061 51.1539ZM25.845 51.1539C25.8449 51.6633 25.6589 52.1518 25.3278 52.5119C24.9967 52.872 24.5478 53.0742 24.0797 53.074C23.6117 53.0739 23.1629 52.8713 22.8321 52.511C22.5012 52.1507 22.3154 51.662 22.3156 51.1526C22.3156 50.6432 22.5016 50.1546 22.8325 49.7944C23.1635 49.4342 23.6123 49.2318 24.0803 49.2318C24.5483 49.2318 24.9972 49.4342 25.3282 49.7944C25.6591 50.1546 25.845 50.6444 25.845 51.1539ZM48.1607 51.1539C48.1606 51.4062 48.1149 51.656 48.0261 51.8891C47.9373 52.1222 47.8072 52.334 47.6432 52.5124C47.4792 52.6907 47.2845 52.8322 47.0703 52.9287C46.8561 53.0251 46.6266 53.0747 46.3948 53.0747C46.163 53.0746 45.9334 53.0248 45.7192 52.9282C45.5051 52.8315 45.3106 52.6899 45.1467 52.5115C44.9828 52.333 44.8528 52.1211 44.7642 51.888C44.6755 51.6548 44.63 51.4049 44.63 51.1526C44.63 50.643 44.816 50.1543 45.1471 49.7939C45.4781 49.4336 45.9272 49.2312 46.3954 49.2312C46.8635 49.2312 47.3126 49.4336 47.6436 49.7939C47.9747 50.1543 48.1607 50.6443 48.1607 51.1539ZM70.4763 51.1539C70.4762 51.4062 70.4304 51.656 70.3417 51.8891C70.2529 52.1222 70.1228 52.334 69.9589 52.5124C69.7949 52.6907 69.6002 52.8322 69.386 52.9287C69.1718 53.0251 68.9422 53.0747 68.7104 53.0747C68.4786 53.0746 68.249 53.0248 68.0349 52.9282C67.8207 52.8315 67.6261 52.6899 67.4623 52.5115C67.2984 52.333 67.1685 52.1211 67.0798 51.888C66.9912 51.6548 66.9456 51.4049 66.9457 51.1526C66.9457 50.6432 67.1316 50.1546 67.4626 49.7944C67.7935 49.4342 68.2424 49.2318 68.7104 49.2318C69.1784 49.2318 69.6273 49.4342 69.9582 49.7944C70.2892 50.1546 70.4751 50.6432 70.4751 51.1526L70.4763 51.1539ZM92.7919 51.1539C92.7919 51.4062 92.7461 51.656 92.6573 51.8891C92.5685 52.1222 92.4384 52.334 92.2744 52.5124C92.1104 52.6907 91.9158 52.8322 91.7016 52.9287C91.4874 53.0251 91.2578 53.0747 91.026 53.0747C90.7942 53.0746 90.5646 53.0248 90.3505 52.9282C90.1363 52.8315 89.9418 52.6899 89.7779 52.5115C89.614 52.333 89.484 52.1211 89.3954 51.888C89.3067 51.6548 89.2612 51.4049 89.2612 51.1526C89.2612 50.6432 89.4472 50.1546 89.7781 49.7944C90.1091 49.4342 90.5579 49.2318 91.026 49.2318C91.494 49.2318 91.9429 49.4342 92.2738 49.7944C92.6048 50.1546 92.7907 50.6432 92.7907 51.1526L92.7919 51.1539ZM115.106 51.1539C115.106 51.6633 114.92 52.1519 114.589 52.5121C114.259 52.8723 113.81 53.0747 113.342 53.0747C112.874 53.0747 112.425 52.8723 112.094 52.5121C111.763 52.1519 111.577 51.6633 111.577 51.1539C111.577 50.6444 111.763 50.1559 112.094 49.7957C112.425 49.4355 112.874 49.2331 113.342 49.2331C113.81 49.2331 114.259 49.4355 114.589 49.7957C114.92 50.1559 115.106 50.6444 115.106 51.1539ZM137.422 51.1539C137.422 51.6633 137.236 52.1519 136.905 52.5121C136.574 52.8723 136.125 53.0747 135.657 53.0747C135.189 53.0747 134.74 52.8723 134.409 52.5121C134.078 52.1519 133.893 51.6633 133.893 51.1539C133.893 50.6444 134.078 50.1559 134.409 49.7957C134.74 49.4355 135.189 49.2331 135.657 49.2331C136.125 49.2331 136.574 49.4355 136.905 49.7957C137.236 50.1559 137.422 50.6444 137.422 51.1539ZM159.739 51.1539C159.739 51.6635 159.552 52.1521 159.221 52.5124C158.89 52.8726 158.441 53.0748 157.973 53.0747C157.505 53.0745 157.056 52.8719 156.725 52.5115C156.394 52.151 156.208 51.6622 156.208 51.1526C156.208 50.643 156.394 50.1543 156.725 49.7939C157.056 49.4336 157.505 49.2312 157.973 49.2312C158.442 49.2312 158.891 49.4336 159.222 49.7939C159.553 50.1543 159.739 50.6443 159.739 51.1539ZM182.054 51.1539C182.054 51.6635 181.868 52.1521 181.537 52.5124C181.206 52.8726 180.757 53.0748 180.288 53.0747C179.82 53.0745 179.371 52.8719 179.04 52.5115C178.709 52.151 178.524 51.6622 178.524 51.1526C178.524 50.6432 178.71 50.1546 179.041 49.7944C179.372 49.4342 179.82 49.2318 180.288 49.2318C180.756 49.2318 181.205 49.4342 181.536 49.7944C181.867 50.1546 182.053 50.6432 182.053 51.1526L182.054 51.1539ZM204.37 51.1539C204.37 51.6636 204.184 52.1525 203.852 52.5128C203.521 52.8732 203.072 53.0755 202.604 53.0753C202.135 53.0752 201.686 52.8725 201.355 52.5119C201.024 52.1513 200.838 51.6624 200.838 51.1526C200.838 50.643 201.024 50.1543 201.355 49.7939C201.686 49.4336 202.135 49.2312 202.604 49.2312C203.072 49.2312 203.521 49.4336 203.852 49.7939C204.183 50.1543 204.369 50.643 204.369 51.1526L204.37 51.1539ZM226.684 51.1539C226.684 51.4061 226.639 51.6559 226.55 51.8889C226.461 52.1219 226.331 52.3336 226.167 52.5119C226.003 52.6902 225.809 52.8316 225.594 52.9281C225.38 53.0245 225.151 53.0741 224.919 53.074C224.687 53.074 224.458 53.0242 224.244 52.9276C224.03 52.831 223.835 52.6894 223.671 52.511C223.508 52.3326 223.378 52.1208 223.289 51.8877C223.2 51.6547 223.155 51.4049 223.155 51.1526C223.155 50.6432 223.341 50.1546 223.672 49.7944C224.003 49.4342 224.452 49.2318 224.92 49.2318C225.388 49.2318 225.837 49.4342 226.168 49.7944C226.498 50.1546 226.684 50.6444 226.684 51.1539ZM249 51.1539C249 51.6635 248.814 52.1521 248.483 52.5124C248.151 52.8726 247.702 53.0748 247.234 53.0747C246.766 53.0745 246.317 52.8719 245.986 52.5115C245.655 52.151 245.469 51.6622 245.469 51.1526C245.469 50.643 245.655 50.1543 245.986 49.7939C246.317 49.4336 246.767 49.2312 247.235 49.2312C247.703 49.2312 248.152 49.4336 248.483 49.7939C248.814 50.1543 249 50.6443 249 51.1539ZM3.53061 75.7682C3.53061 76.2778 3.34466 76.7665 3.0136 77.1268C2.68254 77.4872 2.2335 77.6896 1.76531 77.6896C1.29711 77.6896 0.848073 77.4872 0.517011 77.1268C0.18595 76.7665 9.8128e-08 76.2778 9.8128e-08 75.7682C9.8128e-08 75.2588 0.185916 74.7702 0.516868 74.41C0.847819 74.0498 1.2967 73.8474 1.76473 73.8474C2.23277 73.8474 2.68164 74.0498 3.01259 74.41C3.34355 74.7702 3.53061 75.2588 3.53061 75.7682ZM25.845 75.7682C25.845 76.2776 25.6591 76.7662 25.3282 77.1264C24.9972 77.4866 24.5483 77.689 24.0803 77.689C23.6123 77.689 23.1635 77.4866 22.8325 77.1264C22.5016 76.7662 22.3156 76.2776 22.3156 75.7682C22.3156 75.2588 22.5016 74.7702 22.8325 74.41C23.1635 74.0498 23.6123 73.8474 24.0803 73.8474C24.5483 73.8474 24.9972 74.0498 25.3282 74.41C25.6591 74.7702 25.845 75.2588 25.845 75.7682ZM48.1607 75.7682C48.1607 76.2778 47.9747 76.7665 47.6436 77.1268C47.3126 77.4872 46.8635 77.6896 46.3954 77.6896C45.9272 77.6896 45.4781 77.4872 45.1471 77.1268C44.816 76.7665 44.63 76.2778 44.63 75.7682C44.63 75.2586 44.816 74.7699 45.1471 74.4096C45.4781 74.0492 45.9272 73.8468 46.3954 73.8468C46.8635 73.8468 47.3126 74.0492 47.6436 74.4096C47.9747 74.7699 48.1607 75.2586 48.1607 75.7682ZM70.4763 75.7682C70.4763 76.2778 70.2903 76.7665 69.9592 77.1268C69.6281 77.4872 69.1792 77.6896 68.711 77.6896C68.2428 77.6896 67.7938 77.4872 67.4627 77.1268C67.1316 76.7665 66.9457 76.2778 66.9457 75.7682C66.9457 75.2588 67.1316 74.7702 67.4626 74.41C67.7935 74.0498 68.2424 73.8474 68.7104 73.8474C69.1784 73.8474 69.6273 74.0498 69.9582 74.41C70.2892 74.7702 70.4763 75.2588 70.4763 75.7682ZM92.7919 75.7682C92.7919 76.2778 92.6059 76.7665 92.2748 77.1268C91.9438 77.4872 91.4947 77.6896 91.0266 77.6896C90.5584 77.6896 90.1094 77.4872 89.7783 77.1268C89.4473 76.7665 89.2612 76.2778 89.2612 75.7682C89.2612 75.2588 89.4472 74.7702 89.7781 74.41C90.1091 74.0498 90.5579 73.8474 91.026 73.8474C91.494 73.8474 91.9429 74.0498 92.2738 74.41C92.6048 74.7702 92.7907 75.2588 92.7907 75.7682H92.7919ZM115.106 75.7682C115.106 76.2776 114.92 76.7662 114.589 77.1264C114.259 77.4866 113.81 77.689 113.342 77.689C112.874 77.689 112.425 77.4866 112.094 77.1264C111.763 76.7662 111.577 76.2776 111.577 75.7682C111.577 75.2588 111.763 74.7702 112.094 74.41C112.425 74.0498 112.874 73.8474 113.342 73.8474C113.81 73.8474 114.259 74.0498 114.589 74.41C114.92 74.7702 115.106 75.2588 115.106 75.7682ZM137.422 75.7682C137.422 76.2776 137.236 76.7662 136.905 77.1264C136.574 77.4866 136.125 77.689 135.657 77.689C135.189 77.689 134.74 77.4866 134.409 77.1264C134.078 76.7662 133.893 76.2776 133.893 75.7682C133.893 75.2588 134.078 74.7702 134.409 74.41C134.74 74.0498 135.189 73.8474 135.657 73.8474C136.125 73.8474 136.574 74.0498 136.905 74.41C137.236 74.7702 137.422 75.2588 137.422 75.7682ZM159.739 75.7682C159.739 76.2778 159.553 76.7665 159.222 77.1268C158.891 77.4872 158.442 77.6896 157.973 77.6896C157.505 77.6896 157.056 77.4872 156.725 77.1268C156.394 76.7665 156.208 76.2778 156.208 75.7682C156.208 75.2586 156.394 74.7699 156.725 74.4096C157.056 74.0492 157.505 73.8468 157.973 73.8468C158.442 73.8468 158.891 74.0492 159.222 74.4096C159.553 74.7699 159.739 75.2586 159.739 75.7682ZM182.054 75.7682C182.054 76.2778 181.868 76.7665 181.537 77.1268C181.206 77.4872 180.757 77.6896 180.289 77.6896C179.821 77.6896 179.372 77.4872 179.041 77.1268C178.71 76.7665 178.524 76.2778 178.524 75.7682C178.524 75.2588 178.71 74.7702 179.041 74.41C179.372 74.0498 179.82 73.8474 180.288 73.8474C180.756 73.8474 181.205 74.0498 181.536 74.41C181.867 74.7702 182.054 75.2588 182.054 75.7682ZM204.37 75.7682C204.37 76.278 204.184 76.7669 203.853 77.1273C203.522 77.4878 203.072 77.6903 202.604 77.6903C202.136 77.6903 201.687 77.4878 201.355 77.1273C201.024 76.7669 200.838 76.278 200.838 75.7682C200.838 75.2586 201.024 74.7699 201.355 74.4096C201.686 74.0492 202.135 73.8468 202.604 73.8468C203.072 73.8468 203.521 74.0492 203.852 74.4096C204.183 74.7699 204.37 75.2586 204.37 75.7682ZM226.684 75.7682C226.684 76.2776 226.498 76.7662 226.168 77.1264C225.837 77.4866 225.388 77.689 224.92 77.689C224.452 77.689 224.003 77.4866 223.672 77.1264C223.341 76.7662 223.155 76.2776 223.155 75.7682C223.155 75.2588 223.341 74.7702 223.672 74.41C224.003 74.0498 224.452 73.8474 224.92 73.8474C225.388 73.8474 225.837 74.0498 226.168 74.41C226.498 74.7702 226.684 75.2588 226.684 75.7682ZM249 75.7682C249 76.2778 248.814 76.7665 248.483 77.1268C248.152 77.4872 247.703 77.6896 247.235 77.6896C246.767 77.6896 246.317 77.4872 245.986 77.1268C245.655 76.7665 245.469 76.2778 245.469 75.7682C245.469 75.2586 245.655 74.7699 245.986 74.4096C246.317 74.0492 246.767 73.8468 247.235 73.8468C247.703 73.8468 248.152 74.0492 248.483 74.4096C248.814 74.7699 249 75.2586 249 75.7682ZM3.53061 100.384C3.53061 100.893 3.3447 101.382 3.01374 101.742C2.68279 102.102 2.23392 102.305 1.76588 102.305C1.29784 102.305 0.848968 102.102 0.518016 101.742C0.187065 101.382 0.00114901 100.893 0.00114901 100.384C0.00114901 99.8744 0.187065 99.3858 0.518016 99.0256C0.848968 98.6654 1.29784 98.463 1.76588 98.463C2.23392 98.463 2.68279 98.6654 3.01374 99.0256C3.3447 99.3858 3.53061 99.8744 3.53061 100.384ZM25.845 100.384C25.845 100.893 25.6591 101.382 25.3282 101.742C24.9972 102.102 24.5483 102.305 24.0803 102.305C23.6123 102.305 23.1635 102.102 22.8325 101.742C22.5016 101.382 22.3156 100.893 22.3156 100.384C22.3156 99.8744 22.5016 99.3858 22.8325 99.0256C23.1635 98.6654 23.6123 98.463 24.0803 98.463C24.5483 98.463 24.9972 98.6654 25.3282 99.0256C25.6591 99.3858 25.845 99.8744 25.845 100.384ZM48.1607 100.384C48.1607 100.893 47.9747 101.382 47.6438 101.742C47.3128 102.102 46.864 102.305 46.3959 102.305C45.9279 102.305 45.479 102.102 45.1481 101.742C44.8171 101.382 44.6312 100.893 44.6312 100.384C44.6312 99.8744 44.8171 99.3858 45.1481 99.0256C45.479 98.6654 45.9279 98.463 46.3959 98.463C46.864 98.463 47.3128 98.6654 47.6438 99.0256C47.9747 99.3858 48.1607 99.8744 48.1607 100.384ZM70.4763 100.384C70.4763 100.893 70.2904 101.382 69.9594 101.742C69.6285 102.102 69.1796 102.305 68.7116 102.305C68.2435 102.305 67.7947 102.102 67.4637 101.742C67.1327 101.382 66.9468 100.893 66.9468 100.384C66.9468 99.8744 67.1327 99.3858 67.4637 99.0256C67.7947 98.6654 68.2435 98.463 68.7116 98.463C69.1796 98.463 69.6285 98.6654 69.9594 99.0256C70.2904 99.3858 70.4763 99.8744 70.4763 100.384ZM92.7919 100.384C92.7919 100.893 92.6059 101.382 92.275 101.742C91.944 102.102 91.4952 102.305 91.0272 102.305C90.5592 102.305 90.1103 102.102 89.7793 101.742C89.4484 101.382 89.2625 100.893 89.2625 100.384C89.2625 99.8744 89.4484 99.3858 89.7793 99.0256C90.1103 98.6654 90.5592 98.463 91.0272 98.463C91.4952 98.463 91.944 98.6654 92.275 99.0256C92.6059 99.3858 92.7919 99.8744 92.7919 100.384ZM115.106 100.384C115.115 100.642 115.076 100.899 114.991 101.14C114.907 101.381 114.778 101.601 114.614 101.787C114.449 101.973 114.252 102.121 114.034 102.222C113.815 102.323 113.581 102.375 113.343 102.375C113.106 102.375 112.871 102.323 112.653 102.223C112.435 102.122 112.237 101.974 112.073 101.788C111.908 101.602 111.78 101.382 111.695 101.141C111.61 100.9 111.571 100.643 111.579 100.385C111.596 99.8881 111.789 99.4175 112.118 99.0722C112.446 98.7269 112.885 98.5339 113.342 98.5338C113.799 98.5336 114.238 98.7263 114.567 99.0713C114.896 99.4164 115.09 99.8868 115.106 100.384ZM137.422 100.384C137.431 100.642 137.392 100.899 137.307 101.14C137.222 101.381 137.094 101.601 136.929 101.787C136.765 101.973 136.567 102.121 136.349 102.222C136.131 102.323 135.896 102.375 135.659 102.375C135.422 102.375 135.187 102.323 134.969 102.223C134.75 102.122 134.553 101.974 134.388 101.788C134.224 101.602 134.095 101.382 134.01 101.141C133.926 100.9 133.886 100.643 133.895 100.385C133.911 99.8881 134.104 99.4175 134.433 99.0722C134.762 98.7269 135.201 98.5339 135.658 98.5338C136.115 98.5336 136.554 98.7263 136.883 99.0713C137.212 99.4164 137.405 99.8868 137.422 100.384ZM159.739 100.384C159.739 100.893 159.553 101.382 159.222 101.742C158.891 102.102 158.442 102.305 157.974 102.305C157.506 102.305 157.057 102.102 156.726 101.742C156.395 101.382 156.209 100.893 156.209 100.384C156.209 99.8744 156.395 99.3858 156.726 99.0256C157.057 98.6654 157.506 98.463 157.974 98.463C158.442 98.463 158.891 98.6654 159.222 99.0256C159.553 99.3858 159.739 99.8744 159.739 100.384ZM182.054 100.384C182.054 100.893 181.868 101.382 181.537 101.742C181.207 102.102 180.758 102.305 180.29 102.305C179.822 102.305 179.373 102.102 179.042 101.742C178.711 101.382 178.525 100.893 178.525 100.384C178.525 99.8744 178.711 99.3858 179.042 99.0256C179.373 98.6654 179.822 98.463 180.29 98.463C180.758 98.463 181.207 98.6654 181.537 99.0256C181.868 99.3858 182.054 99.8744 182.054 100.384ZM204.37 100.384C204.37 100.893 204.184 101.382 203.853 101.742C203.522 102.102 203.073 102.305 202.605 102.305C202.137 102.305 201.688 102.102 201.357 101.742C201.026 101.382 200.84 100.893 200.84 100.384C200.84 99.8744 201.026 99.3858 201.357 99.0256C201.688 98.6654 202.137 98.463 202.605 98.463C203.073 98.463 203.522 98.6654 203.853 99.0256C204.184 99.3858 204.37 99.8744 204.37 100.384ZM226.684 100.384C226.684 100.893 226.498 101.382 226.168 101.742C225.837 102.102 225.388 102.305 224.92 102.305C224.452 102.305 224.003 102.102 223.672 101.742C223.341 101.382 223.155 100.893 223.155 100.384C223.155 99.8744 223.341 99.3858 223.672 99.0256C224.003 98.6654 224.452 98.463 224.92 98.463C225.388 98.463 225.837 98.6654 226.168 99.0256C226.498 99.3858 226.684 99.8744 226.684 100.384ZM249 100.384C249 100.893 248.814 101.382 248.483 101.742C248.152 102.102 247.703 102.305 247.235 102.305C246.767 102.305 246.318 102.102 245.987 101.742C245.656 101.382 245.471 100.893 245.471 100.384C245.471 99.8744 245.656 99.3858 245.987 99.0256C246.318 98.6654 246.767 98.463 247.235 98.463C247.703 98.463 248.152 98.6654 248.483 99.0256C248.814 99.3858 249 99.8744 249 100.384ZM3.53061 125.001C3.53053 125.253 3.48483 125.503 3.39604 125.736C3.30726 125.969 3.17715 126.181 3.01317 126.359C2.84919 126.537 2.6545 126.679 2.44029 126.775C2.22608 126.872 1.99656 126.922 1.76473 126.921C1.53291 126.921 1.30332 126.872 1.08917 126.775C0.875021 126.678 0.680523 126.537 0.516652 126.358C0.352782 126.18 0.22278 125.968 0.134136 125.735C0.0454915 125.502 -7.71813e-05 125.252 9.8128e-08 124.999C9.81281e-08 124.49 0.185916 124.001 0.516868 123.641C0.847819 123.281 1.2967 123.079 1.76473 123.079C2.23277 123.079 2.68164 123.281 3.01259 123.641C3.34355 124.001 3.52946 124.49 3.52946 124.999L3.53061 125.001ZM25.845 125.001C25.8449 125.51 25.6589 125.999 25.3278 126.359C24.9967 126.719 24.5478 126.921 24.0797 126.921C23.6117 126.921 23.1629 126.718 22.8321 126.358C22.5012 125.997 22.3154 125.509 22.3156 124.999C22.3156 124.49 22.5016 124.001 22.8325 123.641C23.1635 123.281 23.6123 123.079 24.0803 123.079C24.5483 123.079 24.9972 123.281 25.3282 123.641C25.6591 124.001 25.845 124.491 25.845 125.001ZM48.1607 125.001C48.1606 125.253 48.1149 125.503 48.0261 125.736C47.9373 125.969 47.8072 126.181 47.6432 126.359C47.4792 126.537 47.2845 126.679 47.0703 126.775C46.8561 126.872 46.6266 126.922 46.3948 126.921C46.163 126.921 45.9334 126.872 45.7192 126.775C45.5051 126.678 45.3106 126.537 45.1467 126.358C44.9828 126.18 44.8528 125.968 44.7642 125.735C44.6755 125.502 44.63 125.252 44.63 124.999C44.63 124.49 44.816 124.001 45.1471 123.641C45.4781 123.28 45.9272 123.078 46.3954 123.078C46.8635 123.078 47.3126 123.28 47.6436 123.641C47.9747 124.001 48.1607 124.491 48.1607 125.001ZM70.4763 125.001C70.4762 125.253 70.4304 125.503 70.3417 125.736C70.2529 125.969 70.1228 126.181 69.9589 126.359C69.7949 126.537 69.6002 126.679 69.386 126.775C69.1718 126.872 68.9422 126.922 68.7104 126.921C68.4786 126.921 68.249 126.872 68.0349 126.775C67.8207 126.678 67.6261 126.537 67.4623 126.358C67.2984 126.18 67.1685 125.968 67.0798 125.735C66.9912 125.502 66.9456 125.252 66.9457 124.999C66.9457 124.49 67.1316 124.001 67.4626 123.641C67.7935 123.281 68.2424 123.079 68.7104 123.079C69.1784 123.079 69.6273 123.281 69.9582 123.641C70.2892 124.001 70.4751 124.49 70.4751 124.999L70.4763 125.001ZM92.7919 125.001C92.7919 125.253 92.7461 125.503 92.6573 125.736C92.5685 125.969 92.4384 126.181 92.2744 126.359C92.1104 126.537 91.9158 126.679 91.7016 126.775C91.4874 126.872 91.2578 126.922 91.026 126.921C90.7942 126.921 90.5646 126.872 90.3505 126.775C90.1363 126.678 89.9418 126.537 89.7779 126.358C89.614 126.18 89.484 125.968 89.3954 125.735C89.3067 125.502 89.2612 125.252 89.2612 124.999C89.2612 124.49 89.4472 124.001 89.7781 123.641C90.1091 123.281 90.5579 123.079 91.026 123.079C91.494 123.079 91.9429 123.281 92.2738 123.641C92.6048 124.001 92.7907 124.49 92.7907 124.999L92.7919 125.001ZM115.106 125.001C115.106 125.51 114.92 125.999 114.589 126.359C114.259 126.719 113.81 126.921 113.342 126.921C112.874 126.921 112.425 126.719 112.094 126.359C111.763 125.999 111.577 125.51 111.577 125.001C111.577 124.491 111.763 124.003 112.094 123.642C112.425 123.282 112.874 123.08 113.342 123.08C113.81 123.08 114.259 123.282 114.589 123.642C114.92 124.003 115.106 124.491 115.106 125.001ZM137.422 125.001C137.422 125.51 137.236 125.999 136.905 126.359C136.574 126.719 136.125 126.921 135.657 126.921C135.189 126.921 134.74 126.719 134.409 126.359C134.078 125.999 133.893 125.51 133.893 125.001C133.893 124.491 134.078 124.003 134.409 123.642C134.74 123.282 135.189 123.08 135.657 123.08C136.125 123.08 136.574 123.282 136.905 123.642C137.236 124.003 137.422 124.491 137.422 125.001ZM159.739 125.001C159.739 125.51 159.552 125.999 159.221 126.359C158.89 126.719 158.441 126.922 157.973 126.921C157.505 126.921 157.056 126.719 156.725 126.358C156.394 125.998 156.208 125.509 156.208 124.999C156.208 124.49 156.394 124.001 156.725 123.641C157.056 123.28 157.505 123.078 157.973 123.078C158.442 123.078 158.891 123.28 159.222 123.641C159.553 124.001 159.739 124.491 159.739 125.001ZM182.054 125.001C182.054 125.51 181.868 125.999 181.537 126.359C181.206 126.719 180.757 126.922 180.288 126.921C179.82 126.921 179.371 126.719 179.04 126.358C178.709 125.998 178.524 125.509 178.524 124.999C178.524 124.49 178.71 124.001 179.041 123.641C179.372 123.281 179.82 123.079 180.288 123.079C180.756 123.079 181.205 123.281 181.536 123.641C181.867 124.001 182.053 124.49 182.053 124.999L182.054 125.001ZM204.37 125.001C204.37 125.51 204.184 125.999 203.852 126.36C203.521 126.72 203.072 126.922 202.604 126.922C202.135 126.922 201.686 126.719 201.355 126.359C201.024 125.998 200.838 125.509 200.838 124.999C200.838 124.49 201.024 124.001 201.355 123.641C201.686 123.28 202.135 123.078 202.604 123.078C203.072 123.078 203.521 123.28 203.852 123.641C204.183 124.001 204.369 124.49 204.369 124.999L204.37 125.001ZM226.684 125.001C226.684 125.253 226.639 125.503 226.55 125.736C226.461 125.969 226.331 126.18 226.167 126.359C226.003 126.537 225.809 126.678 225.594 126.775C225.38 126.871 225.151 126.921 224.919 126.921C224.687 126.921 224.458 126.871 224.244 126.774C224.03 126.678 223.835 126.536 223.671 126.358C223.508 126.179 223.378 125.968 223.289 125.734C223.2 125.501 223.155 125.252 223.155 124.999C223.155 124.49 223.341 124.001 223.672 123.641C224.003 123.281 224.452 123.079 224.92 123.079C225.388 123.079 225.837 123.281 226.168 123.641C226.498 124.001 226.684 124.491 226.684 125.001ZM249 125.001C249 125.51 248.814 125.999 248.483 126.359C248.151 126.719 247.702 126.922 247.234 126.921C246.766 126.921 246.317 126.719 245.986 126.358C245.655 125.998 245.469 125.509 245.469 124.999C245.469 124.49 245.655 124.001 245.986 123.641C246.317 123.28 246.767 123.078 247.235 123.078C247.703 123.078 248.152 123.28 248.483 123.641C248.814 124.001 249 124.491 249 125.001ZM3.53061 149.616C3.53061 150.126 3.3447 150.614 3.01374 150.974C2.68279 151.335 2.23392 151.537 1.76588 151.537C1.29784 151.537 0.848968 151.335 0.518016 150.974C0.187065 150.614 0.00114901 150.126 0.00114901 149.616C0.00114901 149.107 0.187065 148.618 0.518016 148.258C0.848968 147.898 1.29784 147.695 1.76588 147.695C2.23392 147.695 2.68279 147.898 3.01374 148.258C3.3447 148.618 3.53061 149.107 3.53061 149.616ZM25.845 149.616C25.845 150.126 25.6591 150.614 25.3282 150.974C24.9972 151.335 24.5483 151.537 24.0803 151.537C23.6123 151.537 23.1635 151.335 22.8325 150.974C22.5016 150.614 22.3156 150.126 22.3156 149.616C22.3156 149.107 22.5016 148.618 22.8325 148.258C23.1635 147.898 23.6123 147.695 24.0803 147.695C24.5483 147.695 24.9972 147.898 25.3282 148.258C25.6591 148.618 25.845 149.107 25.845 149.616ZM48.1607 149.616C48.1607 150.126 47.9747 150.614 47.6438 150.974C47.3128 151.335 46.864 151.537 46.3959 151.537C45.9279 151.537 45.479 151.335 45.1481 150.974C44.8171 150.614 44.6312 150.126 44.6312 149.616C44.6312 149.107 44.8171 148.618 45.1481 148.258C45.479 147.898 45.9279 147.695 46.3959 147.695C46.864 147.695 47.3128 147.898 47.6438 148.258C47.9747 148.618 48.1607 149.107 48.1607 149.616ZM70.4763 149.616C70.4763 150.126 70.2904 150.614 69.9594 150.974C69.6285 151.335 69.1796 151.537 68.7116 151.537C68.2435 151.537 67.7947 151.335 67.4637 150.974C67.1327 150.614 66.9468 150.126 66.9468 149.616C66.9468 149.107 67.1327 148.618 67.4637 148.258C67.7947 147.898 68.2435 147.695 68.7116 147.695C69.1796 147.695 69.6285 147.898 69.9594 148.258C70.2904 148.618 70.4763 149.107 70.4763 149.616ZM92.7919 149.616C92.7919 150.126 92.6059 150.614 92.275 150.974C91.944 151.335 91.4952 151.537 91.0272 151.537C90.5592 151.537 90.1103 151.335 89.7793 150.974C89.4484 150.614 89.2625 150.126 89.2625 149.616C89.2625 149.107 89.4484 148.618 89.7793 148.258C90.1103 147.898 90.5592 147.695 91.0272 147.695C91.4952 147.695 91.944 147.898 92.275 148.258C92.6059 148.618 92.7919 149.107 92.7919 149.616ZM115.106 149.616C115.115 149.874 115.076 150.131 114.991 150.373C114.906 150.614 114.778 150.834 114.613 151.02C114.449 151.205 114.251 151.353 114.033 151.454C113.815 151.555 113.58 151.607 113.343 151.607C113.106 151.607 112.871 151.555 112.653 151.454C112.434 151.353 112.237 151.205 112.072 151.02C111.908 150.834 111.779 150.614 111.695 150.373C111.61 150.131 111.571 149.874 111.579 149.616C111.596 149.119 111.789 148.649 112.118 148.304C112.447 147.958 112.886 147.766 113.343 147.766C113.8 147.766 114.239 147.958 114.568 148.304C114.897 148.649 115.09 149.119 115.106 149.616ZM137.422 149.616C137.431 149.874 137.391 150.131 137.307 150.373C137.222 150.614 137.093 150.834 136.929 151.02C136.764 151.205 136.567 151.353 136.349 151.454C136.13 151.555 135.896 151.607 135.658 151.607C135.421 151.607 135.186 151.555 134.968 151.454C134.75 151.353 134.553 151.205 134.388 151.02C134.223 150.834 134.095 150.614 134.01 150.373C133.925 150.131 133.886 149.874 133.895 149.616C133.911 149.119 134.105 148.649 134.434 148.304C134.762 147.958 135.202 147.766 135.658 147.766C136.115 147.766 136.554 147.958 136.883 148.304C137.212 148.649 137.405 149.119 137.422 149.616ZM159.739 149.616C159.739 150.126 159.553 150.614 159.222 150.974C158.891 151.335 158.442 151.537 157.974 151.537C157.506 151.537 157.057 151.335 156.726 150.974C156.395 150.614 156.209 150.126 156.209 149.616C156.209 149.107 156.395 148.618 156.726 148.258C157.057 147.898 157.506 147.695 157.974 147.695C158.442 147.695 158.891 147.898 159.222 148.258C159.553 148.618 159.739 149.107 159.739 149.616ZM182.054 149.616C182.054 150.126 181.868 150.614 181.537 150.974C181.207 151.335 180.758 151.537 180.29 151.537C179.822 151.537 179.373 151.335 179.042 150.974C178.711 150.614 178.525 150.126 178.525 149.616C178.525 149.107 178.711 148.618 179.042 148.258C179.373 147.898 179.822 147.695 180.29 147.695C180.758 147.695 181.207 147.898 181.537 148.258C181.868 148.618 182.054 149.107 182.054 149.616ZM204.37 149.616C204.37 150.126 204.184 150.614 203.853 150.974C203.522 151.335 203.073 151.537 202.605 151.537C202.137 151.537 201.688 151.335 201.357 150.974C201.026 150.614 200.84 150.126 200.84 149.616C200.84 149.107 201.026 148.618 201.357 148.258C201.688 147.898 202.137 147.695 202.605 147.695C203.073 147.695 203.522 147.898 203.853 148.258C204.184 148.618 204.37 149.107 204.37 149.616ZM226.684 149.616C226.684 150.126 226.498 150.614 226.168 150.974C225.837 151.335 225.388 151.537 224.92 151.537C224.452 151.537 224.003 151.335 223.672 150.974C223.341 150.614 223.155 150.126 223.155 149.616C223.155 149.107 223.341 148.618 223.672 148.258C224.003 147.898 224.452 147.695 224.92 147.695C225.388 147.695 225.837 147.898 226.168 148.258C226.498 148.618 226.684 149.107 226.684 149.616ZM249 149.616C249 150.126 248.814 150.614 248.483 150.974C248.152 151.335 247.703 151.537 247.235 151.537C246.767 151.537 246.318 151.335 245.987 150.974C245.656 150.614 245.471 150.126 245.471 149.616C245.471 149.107 245.656 148.618 245.987 148.258C246.318 147.898 246.767 147.695 247.235 147.695C247.703 147.695 248.152 147.898 248.483 148.258C248.814 148.618 249 149.107 249 149.616ZM3.53061 174.232C3.53053 174.484 3.48483 174.734 3.39604 174.967C3.30726 175.2 3.17715 175.412 3.01317 175.59C2.84919 175.769 2.6545 175.91 2.44029 176.007C2.22608 176.103 1.99656 176.153 1.76473 176.153C1.53291 176.153 1.30332 176.103 1.08917 176.006C0.875021 175.909 0.680523 175.768 0.516652 175.589C0.352782 175.411 0.22278 175.199 0.134136 174.966C0.0454915 174.733 -7.71813e-05 174.483 9.8128e-08 174.231C0.00015611 173.721 0.186237 173.233 0.517298 172.873C0.84836 172.512 1.29727 172.31 1.76531 172.31C2.23334 172.311 2.68211 172.513 3.01295 172.873C3.34379 173.234 3.53077 173.722 3.53061 174.232ZM25.845 174.232C25.8449 174.741 25.6589 175.23 25.3278 175.59C24.9967 175.95 24.5478 176.152 24.0797 176.152C23.6117 176.152 23.1629 175.949 22.8321 175.589C22.5012 175.229 22.3154 174.74 22.3156 174.231C22.3157 173.721 22.5018 173.233 22.8329 172.873C23.1639 172.512 23.6129 172.31 24.0809 172.31C24.549 172.311 24.9977 172.513 25.3286 172.873C25.6594 173.234 25.8452 173.722 25.845 174.232ZM48.1607 174.232C48.1606 174.484 48.1149 174.734 48.0261 174.967C47.9373 175.2 47.8072 175.412 47.6432 175.59C47.4792 175.769 47.2845 175.91 47.0703 176.007C46.8561 176.103 46.6266 176.153 46.3948 176.153C46.163 176.153 45.9334 176.103 45.7192 176.006C45.5051 175.909 45.3106 175.768 45.1467 175.589C44.9828 175.411 44.8528 175.199 44.7642 174.966C44.6755 174.733 44.63 174.483 44.63 174.231C44.6302 173.721 44.8163 173.232 45.1475 172.872C45.4787 172.512 45.9277 172.31 46.3959 172.31C46.8641 172.31 47.3131 172.513 47.644 172.873C47.975 173.233 48.1608 173.722 48.1607 174.232ZM70.4763 174.232C70.4762 174.484 70.4304 174.734 70.3417 174.967C70.2529 175.2 70.1228 175.412 69.9589 175.59C69.7949 175.769 69.6002 175.91 69.386 176.007C69.1718 176.103 68.9422 176.153 68.7104 176.153C68.4786 176.153 68.249 176.103 68.0349 176.006C67.8207 175.909 67.6261 175.768 67.4623 175.589C67.2984 175.411 67.1685 175.199 67.0798 174.966C66.9912 174.733 66.9456 174.483 66.9457 174.231C66.9458 173.721 67.1318 173.233 67.4629 172.873C67.794 172.512 68.243 172.31 68.711 172.31C69.179 172.311 69.6278 172.513 69.9586 172.873C70.2895 173.234 70.4765 173.722 70.4763 174.232ZM92.7919 174.232C92.7919 174.484 92.7461 174.734 92.6573 174.967C92.5685 175.2 92.4384 175.412 92.2744 175.59C92.1104 175.769 91.9158 175.91 91.7016 176.007C91.4874 176.103 91.2578 176.153 91.026 176.153C90.7942 176.153 90.5646 176.103 90.3505 176.006C90.1363 175.909 89.9418 175.768 89.7779 175.589C89.614 175.411 89.484 175.199 89.3954 174.966C89.3067 174.733 89.2612 174.483 89.2612 174.231C89.2614 173.721 89.4475 173.233 89.7785 172.873C90.1096 172.512 90.5585 172.31 91.0266 172.31C91.4946 172.311 91.9434 172.513 92.2743 172.873C92.6051 173.234 92.7909 173.722 92.7907 174.232H92.7919ZM115.106 174.232C115.106 174.741 114.92 175.23 114.589 175.59C114.259 175.95 113.81 176.153 113.342 176.153C112.874 176.153 112.425 175.95 112.094 175.59C111.763 175.23 111.577 174.741 111.577 174.232C111.577 173.722 111.763 173.234 112.094 172.874C112.425 172.513 112.874 172.311 113.342 172.311C113.81 172.311 114.259 172.513 114.589 172.874C114.92 173.234 115.106 173.722 115.106 174.232ZM137.422 174.232C137.422 174.741 137.236 175.23 136.905 175.59C136.574 175.95 136.125 176.153 135.657 176.153C135.189 176.153 134.74 175.95 134.409 175.59C134.078 175.23 133.893 174.741 133.893 174.232C133.893 173.722 134.078 173.234 134.409 172.874C134.74 172.513 135.189 172.311 135.657 172.311C136.125 172.311 136.574 172.513 136.905 172.874C137.236 173.234 137.422 173.722 137.422 174.232ZM159.739 174.232C159.739 174.741 159.552 175.23 159.221 175.59C158.89 175.951 158.441 176.153 157.973 176.153C157.505 176.152 157.056 175.95 156.725 175.589C156.394 175.229 156.208 174.74 156.208 174.231C156.208 173.978 156.254 173.728 156.343 173.495C156.432 173.262 156.562 173.05 156.726 172.872C156.89 172.694 157.084 172.552 157.298 172.456C157.513 172.359 157.742 172.31 157.974 172.31C158.206 172.31 158.435 172.36 158.65 172.456C158.864 172.553 159.058 172.694 159.222 172.873C159.386 173.051 159.516 173.263 159.605 173.497C159.693 173.73 159.739 173.979 159.739 174.232ZM182.054 174.232C182.054 174.741 181.868 175.23 181.537 175.59C181.206 175.951 180.757 176.153 180.288 176.153C179.82 176.152 179.371 175.95 179.04 175.589C178.709 175.229 178.524 174.74 178.524 174.231C178.524 173.721 178.71 173.233 179.041 172.873C179.372 172.512 179.821 172.31 180.289 172.31C180.757 172.311 181.206 172.513 181.537 172.873C181.868 173.234 182.054 173.722 182.054 174.232ZM204.37 174.232C204.37 174.742 204.184 175.23 203.852 175.591C203.521 175.951 203.072 176.153 202.604 176.153C202.135 176.153 201.686 175.95 201.355 175.59C201.024 175.229 200.838 174.74 200.838 174.231C200.838 173.978 200.884 173.728 200.973 173.495C201.062 173.262 201.192 173.05 201.356 172.872C201.52 172.694 201.714 172.552 201.928 172.456C202.143 172.359 202.372 172.31 202.604 172.31C202.836 172.31 203.065 172.36 203.28 172.456C203.494 172.553 203.688 172.694 203.852 172.873C204.016 173.051 204.146 173.263 204.235 173.497C204.323 173.73 204.37 173.979 204.37 174.232ZM226.684 174.232C226.684 174.484 226.639 174.734 226.55 174.967C226.461 175.2 226.331 175.412 226.167 175.59C226.003 175.768 225.809 175.91 225.594 176.006C225.38 176.103 225.151 176.152 224.919 176.152C224.687 176.152 224.458 176.102 224.244 176.006C224.03 175.909 223.835 175.767 223.671 175.589C223.508 175.411 223.378 175.199 223.289 174.966C223.2 174.733 223.155 174.483 223.155 174.231C223.155 173.721 223.341 173.233 223.672 172.873C224.003 172.512 224.452 172.31 224.92 172.31C225.388 172.311 225.837 172.513 226.168 172.873C226.499 173.234 226.685 173.722 226.684 174.232ZM249 174.232C249 174.741 248.814 175.23 248.483 175.59C248.151 175.951 247.702 176.153 247.234 176.153C246.766 176.152 246.317 175.95 245.986 175.589C245.655 175.229 245.469 174.74 245.469 174.231C245.469 173.978 245.515 173.728 245.604 173.495C245.693 173.262 245.823 173.05 245.987 172.872C246.151 172.694 246.346 172.552 246.56 172.456C246.774 172.359 247.003 172.31 247.235 172.31C247.467 172.31 247.697 172.36 247.911 172.456C248.125 172.553 248.319 172.694 248.483 172.873C248.647 173.051 248.777 173.263 248.866 173.497C248.955 173.73 249 173.979 249 174.232ZM3.53061 198.847C3.53053 199.1 3.48483 199.35 3.39604 199.583C3.30726 199.816 3.17715 200.028 3.01317 200.206C2.84919 200.384 2.6545 200.526 2.44029 200.622C2.22608 200.719 1.99656 200.768 1.76473 200.768C1.53291 200.768 1.30332 200.718 1.08917 200.622C0.875021 200.525 0.680523 200.384 0.516652 200.205C0.352782 200.027 0.22278 199.815 0.134136 199.581C0.0454915 199.348 -7.71813e-05 199.099 9.8128e-08 198.846C9.81281e-08 198.337 0.185916 197.848 0.516868 197.488C0.847819 197.128 1.2967 196.925 1.76473 196.925C2.23277 196.925 2.68164 197.128 3.01259 197.488C3.34355 197.848 3.52946 198.337 3.52946 198.846L3.53061 198.847ZM25.845 198.847C25.8449 199.357 25.6589 199.845 25.3278 200.205C24.9967 200.566 24.5478 200.768 24.0797 200.768C23.6117 200.767 23.1629 200.565 22.8321 200.205C22.5012 199.844 22.3154 199.356 22.3156 198.846C22.3156 198.337 22.5016 197.848 22.8325 197.488C23.1635 197.128 23.6123 196.925 24.0803 196.925C24.5483 196.925 24.9972 197.128 25.3282 197.488C25.6591 197.848 25.845 198.338 25.845 198.847ZM48.1607 198.847C48.1606 199.1 48.1149 199.35 48.0261 199.583C47.9373 199.816 47.8072 200.028 47.6432 200.206C47.4792 200.384 47.2845 200.526 47.0703 200.622C46.8561 200.719 46.6266 200.768 46.3948 200.768C46.163 200.768 45.9334 200.718 45.7192 200.622C45.5051 200.525 45.3106 200.384 45.1467 200.205C44.9828 200.027 44.8528 199.815 44.7642 199.581C44.6755 199.348 44.63 199.099 44.63 198.846C44.63 198.337 44.816 197.848 45.1471 197.487C45.4781 197.127 45.9272 196.925 46.3954 196.925C46.8635 196.925 47.3126 197.127 47.6436 197.487C47.9747 197.848 48.1607 198.338 48.1607 198.847ZM70.4763 198.847C70.4762 199.1 70.4304 199.35 70.3417 199.583C70.2529 199.816 70.1228 200.028 69.9589 200.206C69.7949 200.384 69.6002 200.526 69.386 200.622C69.1718 200.719 68.9422 200.768 68.7104 200.768C68.4786 200.768 68.249 200.718 68.0349 200.622C67.8207 200.525 67.6261 200.384 67.4623 200.205C67.2984 200.027 67.1685 199.815 67.0798 199.581C66.9912 199.348 66.9456 199.099 66.9457 198.846C66.9457 198.337 67.1316 197.848 67.4626 197.488C67.7935 197.128 68.2424 196.925 68.7104 196.925C69.1784 196.925 69.6273 197.128 69.9582 197.488C70.2892 197.848 70.4751 198.337 70.4751 198.846L70.4763 198.847ZM92.7919 198.847C92.7919 199.1 92.7461 199.35 92.6573 199.583C92.5685 199.816 92.4384 200.028 92.2744 200.206C92.1104 200.384 91.9158 200.526 91.7016 200.622C91.4874 200.719 91.2578 200.768 91.026 200.768C90.7942 200.768 90.5646 200.718 90.3505 200.622C90.1363 200.525 89.9418 200.384 89.7779 200.205C89.614 200.027 89.484 199.815 89.3954 199.581C89.3067 199.348 89.2612 199.099 89.2612 198.846C89.2612 198.337 89.4472 197.848 89.7781 197.488C90.1091 197.128 90.5579 196.925 91.026 196.925C91.494 196.925 91.9429 197.128 92.2738 197.488C92.6048 197.848 92.7907 198.337 92.7907 198.846L92.7919 198.847ZM115.106 198.847C115.106 199.357 114.92 199.845 114.589 200.206C114.259 200.566 113.81 200.768 113.342 200.768C112.874 200.768 112.425 200.566 112.094 200.206C111.763 199.845 111.577 199.357 111.577 198.847C111.577 198.338 111.763 197.849 112.094 197.489C112.425 197.129 112.874 196.927 113.342 196.927C113.81 196.927 114.259 197.129 114.589 197.489C114.92 197.849 115.106 198.338 115.106 198.847ZM137.422 198.847C137.422 199.357 137.236 199.845 136.905 200.206C136.574 200.566 136.125 200.768 135.657 200.768C135.189 200.768 134.74 200.566 134.409 200.206C134.078 199.845 133.893 199.357 133.893 198.847C133.893 198.338 134.078 197.849 134.409 197.489C134.74 197.129 135.189 196.927 135.657 196.927C136.125 196.927 136.574 197.129 136.905 197.489C137.236 197.849 137.422 198.338 137.422 198.847ZM159.739 198.847C159.739 199.357 159.552 199.846 159.221 200.206C158.89 200.566 158.441 200.768 157.973 200.768C157.505 200.768 157.056 200.565 156.725 200.205C156.394 199.845 156.208 199.356 156.208 198.846C156.208 198.337 156.394 197.848 156.725 197.487C157.056 197.127 157.505 196.925 157.973 196.925C158.442 196.925 158.891 197.127 159.222 197.487C159.553 197.848 159.739 198.338 159.739 198.847ZM182.054 198.847C182.054 199.357 181.868 199.846 181.537 200.206C181.206 200.566 180.757 200.768 180.288 200.768C179.82 200.768 179.371 200.565 179.04 200.205C178.709 199.845 178.524 199.356 178.524 198.846C178.524 198.337 178.71 197.848 179.041 197.488C179.372 197.128 179.82 196.925 180.288 196.925C180.756 196.925 181.205 197.128 181.536 197.488C181.867 197.848 182.053 198.337 182.053 198.846L182.054 198.847ZM204.37 198.847C204.37 199.1 204.324 199.35 204.235 199.583C204.147 199.816 204.016 200.028 203.852 200.206C203.688 200.385 203.494 200.526 203.279 200.623C203.065 200.719 202.835 200.769 202.604 200.769C202.372 200.769 202.142 200.719 201.928 200.622C201.714 200.526 201.519 200.384 201.355 200.205C201.191 200.027 201.061 199.815 200.972 199.582C200.884 199.348 200.838 199.099 200.838 198.846C200.838 198.337 201.024 197.848 201.355 197.487C201.686 197.127 202.135 196.925 202.604 196.925C203.072 196.925 203.521 197.127 203.852 197.487C204.183 197.848 204.369 198.337 204.369 198.846L204.37 198.847ZM226.684 198.847C226.684 199.1 226.639 199.349 226.55 199.582C226.461 199.815 226.331 200.027 226.167 200.205C226.003 200.384 225.809 200.525 225.594 200.622C225.38 200.718 225.151 200.768 224.919 200.768C224.687 200.768 224.458 200.718 224.244 200.621C224.03 200.525 223.835 200.383 223.671 200.205C223.508 200.026 223.378 199.814 223.289 199.581C223.2 199.348 223.155 199.098 223.155 198.846C223.155 198.337 223.341 197.848 223.672 197.488C224.003 197.128 224.452 196.925 224.92 196.925C225.388 196.925 225.837 197.128 226.168 197.488C226.498 197.848 226.684 198.338 226.684 198.847ZM249 198.847C249 199.357 248.814 199.846 248.483 200.206C248.151 200.566 247.702 200.768 247.234 200.768C246.766 200.768 246.317 200.565 245.986 200.205C245.655 199.845 245.469 199.356 245.469 198.846C245.469 198.337 245.655 197.848 245.986 197.487C246.317 197.127 246.767 196.925 247.235 196.925C247.703 196.925 248.152 197.127 248.483 197.487C248.814 197.848 249 198.338 249 198.847ZM3.53061 223.462C3.53061 223.971 3.3447 224.46 3.01374 224.82C2.68279 225.18 2.23392 225.383 1.76588 225.383C1.29784 225.383 0.848968 225.18 0.518016 224.82C0.187065 224.46 0.00114901 223.971 0.00114901 223.462C0.00114901 222.952 0.187065 222.464 0.518016 222.104C0.848968 221.743 1.29784 221.541 1.76588 221.541C2.23392 221.541 2.68279 221.743 3.01374 222.104C3.3447 222.464 3.53061 222.952 3.53061 223.462ZM25.845 223.462C25.845 223.971 25.6591 224.46 25.3282 224.82C24.9972 225.18 24.5483 225.383 24.0803 225.383C23.6123 225.383 23.1635 225.18 22.8325 224.82C22.5016 224.46 22.3156 223.971 22.3156 223.462C22.3156 222.952 22.5016 222.464 22.8325 222.104C23.1635 221.743 23.6123 221.541 24.0803 221.541C24.5483 221.541 24.9972 221.743 25.3282 222.104C25.6591 222.464 25.845 222.952 25.845 223.462ZM48.1607 223.462C48.1607 223.971 47.9747 224.46 47.6438 224.82C47.3128 225.18 46.864 225.383 46.3959 225.383C45.9279 225.383 45.479 225.18 45.1481 224.82C44.8171 224.46 44.6312 223.971 44.6312 223.462C44.6312 222.952 44.8171 222.464 45.1481 222.104C45.479 221.743 45.9279 221.541 46.3959 221.541C46.864 221.541 47.3128 221.743 47.6438 222.104C47.9747 222.464 48.1607 222.952 48.1607 223.462ZM70.4763 223.462C70.4763 223.971 70.2904 224.46 69.9594 224.82C69.6285 225.18 69.1796 225.383 68.7116 225.383C68.2435 225.383 67.7947 225.18 67.4637 224.82C67.1327 224.46 66.9468 223.971 66.9468 223.462C66.9468 222.952 67.1327 222.464 67.4637 222.104C67.7947 221.743 68.2435 221.541 68.7116 221.541C69.1796 221.541 69.6285 221.743 69.9594 222.104C70.2904 222.464 70.4763 222.952 70.4763 223.462ZM92.7919 223.462C92.7919 223.971 92.6059 224.46 92.275 224.82C91.944 225.18 91.4952 225.383 91.0272 225.383C90.5592 225.383 90.1103 225.18 89.7793 224.82C89.4484 224.46 89.2625 223.971 89.2625 223.462C89.2625 222.952 89.4484 222.464 89.7793 222.104C90.1103 221.743 90.5592 221.541 91.0272 221.541C91.4952 221.541 91.944 221.743 92.275 222.104C92.6059 222.464 92.7919 222.952 92.7919 223.462ZM115.106 223.462C115.115 223.72 115.076 223.977 114.992 224.218C114.907 224.459 114.779 224.679 114.614 224.865C114.45 225.051 114.252 225.199 114.034 225.3C113.816 225.402 113.581 225.454 113.344 225.454C113.107 225.454 112.872 225.402 112.654 225.301C112.435 225.201 112.238 225.053 112.073 224.867C111.908 224.682 111.78 224.462 111.695 224.221C111.61 223.98 111.571 223.722 111.579 223.464C111.596 222.967 111.788 222.497 112.117 222.151C112.446 221.806 112.885 221.613 113.342 221.612C113.799 221.612 114.238 221.805 114.567 222.149C114.896 222.494 115.089 222.965 115.106 223.462ZM137.422 223.462C137.431 223.72 137.392 223.977 137.307 224.218C137.223 224.459 137.094 224.679 136.93 224.865C136.765 225.051 136.568 225.199 136.35 225.3C136.131 225.402 135.897 225.454 135.66 225.454C135.422 225.454 135.188 225.402 134.969 225.301C134.751 225.201 134.554 225.053 134.389 224.867C134.224 224.682 134.095 224.462 134.011 224.221C133.926 223.98 133.886 223.722 133.895 223.464C133.911 222.967 134.104 222.497 134.433 222.151C134.761 221.806 135.2 221.613 135.657 221.612C136.114 221.612 136.553 221.805 136.882 222.149C137.212 222.494 137.405 222.965 137.422 223.462ZM159.739 223.462C159.739 223.971 159.553 224.46 159.222 224.82C158.891 225.18 158.442 225.383 157.974 225.383C157.506 225.383 157.057 225.18 156.726 224.82C156.395 224.46 156.209 223.971 156.209 223.462C156.209 222.952 156.395 222.464 156.726 222.104C157.057 221.743 157.506 221.541 157.974 221.541C158.442 221.541 158.891 221.743 159.222 222.104C159.553 222.464 159.739 222.952 159.739 223.462ZM182.054 223.462C182.054 223.971 181.868 224.46 181.537 224.82C181.207 225.18 180.758 225.383 180.29 225.383C179.822 225.383 179.373 225.18 179.042 224.82C178.711 224.46 178.525 223.971 178.525 223.462C178.525 222.952 178.711 222.464 179.042 222.104C179.373 221.743 179.822 221.541 180.29 221.541C180.758 221.541 181.207 221.743 181.537 222.104C181.868 222.464 182.054 222.952 182.054 223.462ZM204.37 223.462C204.37 223.971 204.184 224.46 203.853 224.82C203.522 225.18 203.073 225.383 202.605 225.383C202.137 225.383 201.688 225.18 201.357 224.82C201.026 224.46 200.84 223.971 200.84 223.462C200.84 222.952 201.026 222.464 201.357 222.104C201.688 221.743 202.137 221.541 202.605 221.541C203.073 221.541 203.522 221.743 203.853 222.104C204.184 222.464 204.37 222.952 204.37 223.462ZM226.684 223.462C226.684 223.971 226.498 224.46 226.168 224.82C225.837 225.18 225.388 225.383 224.92 225.383C224.452 225.383 224.003 225.18 223.672 224.82C223.341 224.46 223.155 223.971 223.155 223.462C223.155 222.952 223.341 222.464 223.672 222.104C224.003 221.743 224.452 221.541 224.92 221.541C225.388 221.541 225.837 221.743 226.168 222.104C226.498 222.464 226.684 222.952 226.684 223.462ZM249 223.462C249 223.971 248.814 224.46 248.483 224.82C248.152 225.18 247.703 225.383 247.235 225.383C246.767 225.383 246.318 225.18 245.987 224.82C245.656 224.46 245.471 223.971 245.471 223.462C245.471 222.952 245.656 222.464 245.987 222.104C246.318 221.743 246.767 221.541 247.235 221.541C247.703 221.541 248.152 221.743 248.483 222.104C248.814 222.464 249 222.952 249 223.462ZM3.53061 248.079C3.53053 248.331 3.48483 248.581 3.39604 248.814C3.30726 249.047 3.17715 249.259 3.01317 249.437C2.84919 249.615 2.6545 249.757 2.44029 249.853C2.22608 249.95 1.99656 249.999 1.76473 249.999C1.53291 249.999 1.30332 249.95 1.08917 249.853C0.875021 249.756 0.680523 249.615 0.516652 249.436C0.352782 249.258 0.22278 249.046 0.134136 248.813C0.0454915 248.579 -7.71813e-05 248.33 9.8128e-08 248.077C9.81281e-08 247.568 0.185916 247.079 0.516868 246.719C0.847819 246.359 1.2967 246.157 1.76473 246.157C2.23277 246.157 2.68164 246.359 3.01259 246.719C3.34355 247.079 3.52946 247.568 3.52946 248.077L3.53061 248.079ZM25.845 248.079C25.8449 248.588 25.6589 249.077 25.3278 249.437C24.9967 249.797 24.5478 249.999 24.0797 249.999C23.6117 249.999 23.1629 249.796 22.8321 249.436C22.5012 249.075 22.3154 248.587 22.3156 248.077C22.3156 247.568 22.5016 247.079 22.8325 246.719C23.1635 246.359 23.6123 246.157 24.0803 246.157C24.5483 246.157 24.9972 246.359 25.3282 246.719C25.6591 247.079 25.845 247.569 25.845 248.079ZM48.1607 248.079C48.1606 248.331 48.1149 248.581 48.0261 248.814C47.9373 249.047 47.8072 249.259 47.6432 249.437C47.4792 249.615 47.2845 249.757 47.0703 249.853C46.8561 249.95 46.6266 249.999 46.3948 249.999C46.163 249.999 45.9334 249.95 45.7192 249.853C45.5051 249.756 45.3106 249.615 45.1467 249.436C44.9828 249.258 44.8528 249.046 44.7642 248.813C44.6755 248.579 44.63 248.33 44.63 248.077C44.63 247.568 44.816 247.079 45.1471 246.719C45.4781 246.358 45.9272 246.156 46.3954 246.156C46.8635 246.156 47.3126 246.358 47.6436 246.719C47.9747 247.079 48.1607 247.569 48.1607 248.079ZM70.4763 248.079C70.4762 248.331 70.4304 248.581 70.3417 248.814C70.2529 249.047 70.1228 249.259 69.9589 249.437C69.7949 249.615 69.6002 249.757 69.386 249.853C69.1718 249.95 68.9422 249.999 68.7104 249.999C68.4786 249.999 68.249 249.95 68.0349 249.853C67.8207 249.756 67.6261 249.615 67.4623 249.436C67.2984 249.258 67.1685 249.046 67.0798 248.813C66.9912 248.579 66.9456 248.33 66.9457 248.077C66.9457 247.568 67.1316 247.079 67.4626 246.719C67.7935 246.359 68.2424 246.157 68.7104 246.157C69.1784 246.157 69.6273 246.359 69.9582 246.719C70.2892 247.079 70.4751 247.568 70.4751 248.077L70.4763 248.079ZM92.7919 248.079C92.7919 248.331 92.7461 248.581 92.6573 248.814C92.5685 249.047 92.4384 249.259 92.2744 249.437C92.1104 249.615 91.9158 249.757 91.7016 249.853C91.4874 249.95 91.2578 249.999 91.026 249.999C90.7942 249.999 90.5646 249.95 90.3505 249.853C90.1363 249.756 89.9418 249.615 89.7779 249.436C89.614 249.258 89.484 249.046 89.3954 248.813C89.3067 248.579 89.2612 248.33 89.2612 248.077C89.2612 247.568 89.4472 247.079 89.7781 246.719C90.1091 246.359 90.5579 246.157 91.026 246.157C91.494 246.157 91.9429 246.359 92.2738 246.719C92.6048 247.079 92.7907 247.568 92.7907 248.077L92.7919 248.079ZM115.106 248.079C115.106 248.588 114.92 249.077 114.589 249.437C114.259 249.797 113.81 249.999 113.342 249.999C112.874 249.999 112.425 249.797 112.094 249.437C111.763 249.077 111.577 248.588 111.577 248.079C111.577 247.569 111.763 247.081 112.094 246.72C112.425 246.36 112.874 246.158 113.342 246.158C113.81 246.158 114.259 246.36 114.589 246.72C114.92 247.081 115.106 247.569 115.106 248.079ZM137.422 248.079C137.422 248.588 137.236 249.077 136.905 249.437C136.574 249.797 136.125 249.999 135.657 249.999C135.189 249.999 134.74 249.797 134.409 249.437C134.078 249.077 133.893 248.588 133.893 248.079C133.893 247.569 134.078 247.081 134.409 246.72C134.74 246.36 135.189 246.158 135.657 246.158C136.125 246.158 136.574 246.36 136.905 246.72C137.236 247.081 137.422 247.569 137.422 248.079ZM159.739 248.079C159.739 248.588 159.552 249.077 159.221 249.437C158.89 249.797 158.441 250 157.973 249.999C157.505 249.999 157.056 249.797 156.725 249.436C156.394 249.076 156.208 248.587 156.208 248.077C156.208 247.568 156.394 247.079 156.725 246.719C157.056 246.358 157.505 246.156 157.973 246.156C158.442 246.156 158.891 246.358 159.222 246.719C159.553 247.079 159.739 247.569 159.739 248.079ZM182.054 248.079C182.054 248.588 181.868 249.077 181.537 249.437C181.206 249.797 180.757 250 180.288 249.999C179.82 249.999 179.371 249.797 179.04 249.436C178.709 249.076 178.524 248.587 178.524 248.077C178.524 247.568 178.71 247.079 179.041 246.719C179.372 246.359 179.82 246.157 180.288 246.157C180.756 246.157 181.205 246.359 181.536 246.719C181.867 247.079 182.053 247.568 182.053 248.077L182.054 248.079ZM204.37 248.079C204.37 248.588 204.184 249.077 203.852 249.438C203.521 249.798 203.072 250 202.604 250C202.135 250 201.686 249.797 201.355 249.437C201.024 249.076 200.838 248.587 200.838 248.077C200.838 247.568 201.024 247.079 201.355 246.719C201.686 246.358 202.135 246.156 202.604 246.156C203.072 246.156 203.521 246.358 203.852 246.719C204.183 247.079 204.369 247.568 204.369 248.077L204.37 248.079ZM226.684 248.079C226.684 248.331 226.639 248.581 226.55 248.814C226.461 249.047 226.331 249.258 226.167 249.437C226.003 249.615 225.809 249.756 225.594 249.853C225.38 249.949 225.151 249.999 224.919 249.999C224.687 249.999 224.458 249.949 224.244 249.852C224.03 249.756 223.835 249.614 223.671 249.436C223.508 249.257 223.378 249.045 223.289 248.812C223.2 248.579 223.155 248.33 223.155 248.077C223.155 247.568 223.341 247.079 223.672 246.719C224.003 246.359 224.452 246.157 224.92 246.157C225.388 246.157 225.837 246.359 226.168 246.719C226.498 247.079 226.684 247.569 226.684 248.079ZM249 248.079C249 248.588 248.814 249.077 248.483 249.437C248.151 249.797 247.702 250 247.234 249.999C246.766 249.999 246.317 249.797 245.986 249.436C245.655 249.076 245.469 248.587 245.469 248.077C245.469 247.568 245.655 247.079 245.986 246.719C246.317 246.358 246.767 246.156 247.235 246.156C247.703 246.156 248.152 246.358 248.483 246.719C248.814 247.079 249 247.569 249 248.079Z" fill="#5F5858"/>
</svg>