<svg xmlns="http://www.w3.org/2000/svg" version="1.1" xmlns:xlink="http://www.w3.org/1999/xlink" xmlns:svgjs="http://svgjs.com/svgjs" width="1000" height="1000"><rect width="1000" height="1000" rx="250" ry="250" fill="#ffffff"></rect><g transform="matrix(9,0,0,9,50.06238651275635,370.7800064087023)"><svg xmlns="http://www.w3.org/2000/svg" version="1.1" xmlns:xlink="http://www.w3.org/1999/xlink" xmlns:svgjs="http://svgjs.com/svgjs" width="100" height="29"><svg width="100" height="29" viewBox="0 0 100 29" fill="none" xmlns="http://www.w3.org/2000/svg">
<path d="M0.88 28V-1.90735e-06H11.48L23 20.48L25.16 19.08C23.88 17.1067 22.9733 15.3333 22.44 13.76C21.9067 12.16 21.64 10.2933 21.64 8.16V-1.90735e-06H28.96V28H20.32L6.76 3.84L4.6 5.16C7 9.13333 8.2 13.12 8.2 17.12V28H0.88ZM32.5537 22.8C32.5537 18.2667 36.8071 15.68 45.3137 15.04V14.32C45.3137 12.6667 44.3537 11.84 42.4337 11.84C40.4337 11.84 39.2071 12.7867 38.7537 14.68L32.2737 13.6C32.5137 11.76 33.5537 10.2533 35.3937 9.08C37.2337 7.88 39.6337 7.28 42.5937 7.28C45.6337 7.28 47.9671 7.96 49.5937 9.32C51.2204 10.68 52.0337 12.64 52.0337 15.2V21.8C52.0337 22.28 52.1004 22.6 52.2337 22.76C52.3671 22.92 52.6737 23 53.1537 23H54.7137V28H51.5537C49.9004 28 48.7804 27.6933 48.1937 27.08C47.6071 26.44 47.2871 25.36 47.2337 23.84H45.1537C44.2204 27.0667 42.1004 28.68 38.7937 28.68C36.9537 28.68 35.4471 28.1467 34.2737 27.08C33.1271 26.0133 32.5537 24.5867 32.5537 22.8ZM45.3137 19.88V18.68C43.3404 18.8667 41.8604 19.2267 40.8737 19.76C39.8871 20.2933 39.3937 21.0667 39.3937 22.08C39.3937 23.36 40.1404 24 41.6337 24C42.7004 24 43.5804 23.64 44.2737 22.92C44.9671 22.2 45.3137 21.1867 45.3137 19.88ZM60.1097 28L52.7097 7.96H60.0697L62.2297 14.68C62.7097 16.2533 63.0297 17.7333 63.1897 19.12C63.3497 20.5333 63.4297 22.2667 63.4297 24.32H65.7897C65.7897 22.3733 65.8564 20.6267 65.9897 19.08C66.1497 17.56 66.443 16.1067 66.8697 14.72L68.9497 7.96H75.9497L68.9097 28H60.1097ZM83.2644 28L75.8644 7.96H83.2244L85.3844 14.68C85.8644 16.2533 86.1844 17.7333 86.3444 19.12C86.5044 20.5333 86.5844 22.2667 86.5844 24.32H88.9444C88.9444 22.3733 89.011 20.6267 89.1444 19.08C89.3044 17.56 89.5977 16.1067 90.0244 14.72L92.1044 7.96H99.1044L92.0644 28H83.2644Z" fill="#181818"></path>
</svg></svg></g></svg>